<svg width="480" height="472" viewBox="0 0 480 472" fill="none" xmlns="http://www.w3.org/2000/svg">
<mask id="mask0_320_1938" style="mask-type:alpha" maskUnits="userSpaceOnUse" x="0" y="0" width="480" height="472">
<rect x="0.5" y="0.5" width="479" height="471" fill="#D9D9D9" stroke="#404040"/>
</mask>
<g mask="url(#mask0_320_1938)">
<rect x="0.5" y="0.5" width="479" height="471" fill="#404040" stroke="#404040"/>
<rect x="249.795" y="-250" width="4" height="682.749" transform="rotate(45 249.795 -250)" fill="#020202"/>
<rect x="254.434" y="-243.325" width="4" height="682.749" transform="rotate(45 254.434 -243.325)" fill="#020202"/>
<rect x="261.108" y="-238.687" width="4" height="682.749" transform="rotate(45 261.108 -238.687)" fill="#020202"/>
<rect x="265.747" y="-232.011" width="4" height="682.749" transform="rotate(45 265.747 -232.011)" fill="#020202"/>
<rect x="272.422" y="-227.373" width="4" height="682.749" transform="rotate(45 272.422 -227.373)" fill="#020202"/>
<rect x="277.061" y="-220.697" width="4" height="682.749" transform="rotate(45 277.061 -220.697)" fill="#020202"/>
<rect x="283.736" y="-216.059" width="4" height="682.749" transform="rotate(45 283.736 -216.059)" fill="#020202"/>
<rect x="288.374" y="-209.383" width="4" height="682.749" transform="rotate(45 288.374 -209.383)" fill="#020202"/>
<rect x="295.05" y="-204.745" width="4" height="682.749" transform="rotate(45 295.05 -204.745)" fill="#020202"/>
<rect x="299.688" y="-198.07" width="4" height="682.749" transform="rotate(45 299.688 -198.07)" fill="#020202"/>
<rect x="306.363" y="-193.432" width="4" height="682.749" transform="rotate(45 306.363 -193.432)" fill="#020202"/>
<rect x="311.002" y="-186.756" width="4" height="682.749" transform="rotate(45 311.002 -186.756)" fill="#020202"/>
<rect x="317.677" y="-182.118" width="4" height="682.749" transform="rotate(45 317.677 -182.118)" fill="#020202"/>
<rect x="322.315" y="-175.442" width="4" height="682.749" transform="rotate(45 322.315 -175.442)" fill="#020202"/>
<rect x="328.991" y="-170.804" width="4" height="682.749" transform="rotate(45 328.991 -170.804)" fill="#020202"/>
<rect x="333.629" y="-164.129" width="4" height="682.749" transform="rotate(45 333.629 -164.129)" fill="#020202"/>
<rect x="340.305" y="-159.49" width="4" height="682.749" transform="rotate(45 340.305 -159.49)" fill="#020202"/>
<rect x="344.943" y="-152.815" width="4" height="682.749" transform="rotate(45 344.943 -152.815)" fill="#020202"/>
<rect x="351.618" y="-148.177" width="4" height="682.749" transform="rotate(45 351.618 -148.177)" fill="#020202"/>
<rect x="356.257" y="-141.501" width="4" height="682.749" transform="rotate(45 356.257 -141.501)" fill="#020202"/>
<rect x="362.932" y="-136.863" width="4" height="682.749" transform="rotate(45 362.932 -136.863)" fill="#020202"/>
<rect x="367.57" y="-130.188" width="4" height="682.749" transform="rotate(45 367.57 -130.188)" fill="#020202"/>
<rect x="374.246" y="-125.549" width="4" height="682.749" transform="rotate(45 374.246 -125.549)" fill="#020202"/>
<rect x="378.884" y="-118.874" width="4" height="682.749" transform="rotate(45 378.884 -118.874)" fill="#020202"/>
<rect x="385.56" y="-114.235" width="4" height="682.749" transform="rotate(45 385.56 -114.235)" fill="#020202"/>
<rect x="390.198" y="-107.56" width="4" height="682.749" transform="rotate(45 390.198 -107.56)" fill="#020202"/>
<rect x="396.873" y="-102.922" width="4" height="682.749" transform="rotate(45 396.873 -102.922)" fill="#020202"/>
<rect x="401.512" y="-96.2466" width="4" height="682.749" transform="rotate(45 401.512 -96.2466)" fill="#020202"/>
<rect x="408.187" y="-91.6079" width="4" height="682.749" transform="rotate(45 408.187 -91.6079)" fill="#020202"/>
<rect x="412.825" y="-84.9326" width="4" height="682.749" transform="rotate(45 412.825 -84.9326)" fill="#020202"/>
<rect x="419.501" y="-80.2944" width="4" height="682.749" transform="rotate(45 419.501 -80.2944)" fill="#020202"/>
<rect x="424.139" y="-73.6191" width="4" height="682.749" transform="rotate(45 424.139 -73.6191)" fill="#020202"/>
<rect x="430.814" y="-68.9805" width="4" height="682.749" transform="rotate(45 430.814 -68.9805)" fill="#020202"/>
<rect x="435.452" y="-62.3052" width="4" height="682.749" transform="rotate(45 435.452 -62.3052)" fill="#020202"/>
<rect x="442.128" y="-57.667" width="4" height="682.749" transform="rotate(45 442.128 -57.667)" fill="#020202"/>
<rect x="446.767" y="-50.9917" width="4" height="682.749" transform="rotate(45 446.767 -50.9917)" fill="#020202"/>
<rect x="453.441" y="-46.353" width="4" height="682.749" transform="rotate(45 453.441 -46.353)" fill="#020202"/>
<rect x="458.08" y="-39.6777" width="4" height="682.749" transform="rotate(45 458.08 -39.6777)" fill="#020202"/>
<rect x="464.756" y="-35.0396" width="4" height="682.749" transform="rotate(45 464.756 -35.0396)" fill="#020202"/>
<rect x="469.394" y="-28.3643" width="4" height="682.749" transform="rotate(45 469.394 -28.3643)" fill="#020202"/>
<rect x="476.069" y="-23.7261" width="4" height="682.749" transform="rotate(45 476.069 -23.7261)" fill="#020202"/>
<rect x="480.707" y="-17.0503" width="4" height="682.749" transform="rotate(45 480.707 -17.0503)" fill="#020202"/>
<rect x="487.383" y="-12.4121" width="4" height="682.749" transform="rotate(45 487.383 -12.4121)" fill="#020202"/>
<rect x="492.021" y="-5.73682" width="4" height="682.749" transform="rotate(45 492.021 -5.73682)" fill="#020202"/>
<rect x="498.696" y="-1.09863" width="4" height="682.749" transform="rotate(45 498.696 -1.09863)" fill="#020202"/>
<rect x="503.335" y="5.57715" width="4" height="682.749" transform="rotate(45 503.335 5.57715)" fill="#020202"/>
<rect x="510.01" y="10.2153" width="4" height="682.749" transform="rotate(45 510.01 10.2153)" fill="#020202"/>
<rect x="514.648" y="16.8906" width="4" height="682.749" transform="rotate(45 514.648 16.8906)" fill="#020202"/>
<rect x="521.324" y="21.5288" width="4" height="682.749" transform="rotate(45 521.324 21.5288)" fill="#020202"/>
<rect x="525.962" y="28.2046" width="4" height="682.749" transform="rotate(45 525.962 28.2046)" fill="#020202"/>
<rect x="532.638" y="32.8428" width="4" height="682.749" transform="rotate(45 532.638 32.8428)" fill="#020202"/>
<rect x="537.276" y="39.5181" width="4" height="682.749" transform="rotate(45 537.276 39.5181)" fill="#020202"/>
<rect x="543.951" y="44.1562" width="4" height="682.749" transform="rotate(45 543.951 44.1562)" fill="#020202"/>
<rect x="548.59" y="50.8315" width="4" height="682.749" transform="rotate(45 548.59 50.8315)" fill="#020202"/>
<rect x="555.265" y="55.4702" width="4" height="682.749" transform="rotate(45 555.265 55.4702)" fill="#020202"/>
<rect x="559.903" y="62.1455" width="4" height="682.749" transform="rotate(45 559.903 62.1455)" fill="#020202"/>
<rect x="566.579" y="66.7837" width="4" height="682.749" transform="rotate(45 566.579 66.7837)" fill="#020202"/>
<rect x="571.217" y="73.459" width="4" height="682.749" transform="rotate(45 571.217 73.459)" fill="#020202"/>
<rect x="577.893" y="78.0977" width="4" height="682.749" transform="rotate(45 577.893 78.0977)" fill="#020202"/>
<rect x="583.55" y="83.7544" width="4" height="682.749" transform="rotate(45 583.55 83.7544)" fill="#020202"/>
<rect x="606.795" y="72" width="4" height="682.749" transform="rotate(45 606.795 72)" fill="#020202"/>
<rect x="611.434" y="78.6753" width="4" height="682.749" transform="rotate(45 611.434 78.6753)" fill="#020202"/>
<rect x="618.108" y="83.3135" width="4" height="682.749" transform="rotate(45 618.108 83.3135)" fill="#020202"/>
<rect x="622.747" y="89.9893" width="4" height="682.749" transform="rotate(45 622.747 89.9893)" fill="#020202"/>
<rect x="629.422" y="94.6274" width="4" height="682.749" transform="rotate(45 629.422 94.6274)" fill="#020202"/>
<rect x="634.061" y="101.303" width="4" height="682.749" transform="rotate(45 634.061 101.303)" fill="#020202"/>
<rect x="640.736" y="105.941" width="4" height="682.749" transform="rotate(45 640.736 105.941)" fill="#020202"/>
<rect x="645.374" y="112.617" width="4" height="682.749" transform="rotate(45 645.374 112.617)" fill="#020202"/>
<rect x="652.05" y="117.255" width="4" height="682.749" transform="rotate(45 652.05 117.255)" fill="#020202"/>
<rect x="656.688" y="123.93" width="4" height="682.749" transform="rotate(45 656.688 123.93)" fill="#020202"/>
<rect x="663.363" y="128.568" width="4" height="682.749" transform="rotate(45 663.363 128.568)" fill="#020202"/>
<rect x="668.002" y="135.244" width="4" height="682.749" transform="rotate(45 668.002 135.244)" fill="#020202"/>
<rect x="674.677" y="139.882" width="4" height="682.749" transform="rotate(45 674.677 139.882)" fill="#020202"/>
<rect x="679.315" y="146.558" width="4" height="682.749" transform="rotate(45 679.315 146.558)" fill="#020202"/>
<rect x="685.991" y="151.196" width="4" height="682.749" transform="rotate(45 685.991 151.196)" fill="#020202"/>
<rect x="690.629" y="157.871" width="4" height="682.749" transform="rotate(45 690.629 157.871)" fill="#020202"/>
<rect x="697.305" y="162.51" width="4" height="682.749" transform="rotate(45 697.305 162.51)" fill="#020202"/>
<rect x="701.943" y="169.185" width="4" height="682.749" transform="rotate(45 701.943 169.185)" fill="#020202"/>
<rect x="708.618" y="173.823" width="4" height="682.749" transform="rotate(45 708.618 173.823)" fill="#020202"/>
<rect x="713.257" y="180.499" width="4" height="682.749" transform="rotate(45 713.257 180.499)" fill="#020202"/>
<rect x="719.932" y="185.137" width="4" height="682.749" transform="rotate(45 719.932 185.137)" fill="#020202"/>
<rect x="724.57" y="191.812" width="4" height="682.749" transform="rotate(45 724.57 191.812)" fill="#020202"/>
<rect x="731.246" y="196.451" width="4" height="682.749" transform="rotate(45 731.246 196.451)" fill="#020202"/>
<rect x="735.884" y="203.126" width="4" height="682.749" transform="rotate(45 735.884 203.126)" fill="#020202"/>
<rect x="742.56" y="207.765" width="4" height="682.749" transform="rotate(45 742.56 207.765)" fill="#020202"/>
<rect x="747.198" y="214.44" width="4" height="682.749" transform="rotate(45 747.198 214.44)" fill="#020202"/>
<rect x="753.873" y="219.078" width="4" height="682.749" transform="rotate(45 753.873 219.078)" fill="#020202"/>
<rect x="758.512" y="225.753" width="4" height="682.749" transform="rotate(45 758.512 225.753)" fill="#020202"/>
<rect x="765.187" y="230.392" width="4" height="682.749" transform="rotate(45 765.187 230.392)" fill="#020202"/>
<rect x="769.825" y="237.067" width="4" height="682.749" transform="rotate(45 769.825 237.067)" fill="#020202"/>
<rect x="776.501" y="241.706" width="4" height="682.749" transform="rotate(45 776.501 241.706)" fill="#020202"/>
<rect x="781.139" y="248.381" width="4" height="682.749" transform="rotate(45 781.139 248.381)" fill="#020202"/>
<rect x="787.814" y="253.02" width="4" height="682.749" transform="rotate(45 787.814 253.02)" fill="#020202"/>
<rect x="792.452" y="259.695" width="4" height="682.749" transform="rotate(45 792.452 259.695)" fill="#020202"/>
<rect x="799.128" y="264.333" width="4" height="682.749" transform="rotate(45 799.128 264.333)" fill="#020202"/>
<rect x="803.767" y="271.008" width="4" height="682.749" transform="rotate(45 803.767 271.008)" fill="#020202"/>
<rect x="810.441" y="275.647" width="4" height="682.749" transform="rotate(45 810.441 275.647)" fill="#020202"/>
<rect x="815.08" y="282.322" width="4" height="682.749" transform="rotate(45 815.08 282.322)" fill="#020202"/>
<rect x="821.756" y="286.96" width="4" height="682.749" transform="rotate(45 821.756 286.96)" fill="#020202"/>
<rect x="826.394" y="293.636" width="4" height="682.749" transform="rotate(45 826.394 293.636)" fill="#020202"/>
<rect x="833.069" y="298.274" width="4" height="682.749" transform="rotate(45 833.069 298.274)" fill="#020202"/>
<rect x="837.707" y="304.95" width="4" height="682.749" transform="rotate(45 837.707 304.95)" fill="#020202"/>
<rect x="844.383" y="309.588" width="4" height="682.749" transform="rotate(45 844.383 309.588)" fill="#020202"/>
<rect x="849.021" y="316.263" width="4" height="682.749" transform="rotate(45 849.021 316.263)" fill="#020202"/>
<rect x="855.696" y="320.901" width="4" height="682.749" transform="rotate(45 855.696 320.901)" fill="#020202"/>
<rect x="860.335" y="327.577" width="4" height="682.749" transform="rotate(45 860.335 327.577)" fill="#020202"/>
<rect x="867.01" y="332.215" width="4" height="682.749" transform="rotate(45 867.01 332.215)" fill="#020202"/>
<rect x="871.648" y="338.891" width="4" height="682.749" transform="rotate(45 871.648 338.891)" fill="#020202"/>
<rect x="878.324" y="343.529" width="4" height="682.749" transform="rotate(45 878.324 343.529)" fill="#020202"/>
<rect x="882.962" y="350.205" width="4" height="682.749" transform="rotate(45 882.962 350.205)" fill="#020202"/>
<rect x="889.638" y="354.843" width="4" height="682.749" transform="rotate(45 889.638 354.843)" fill="#020202"/>
<rect x="894.276" y="361.518" width="4" height="682.749" transform="rotate(45 894.276 361.518)" fill="#020202"/>
<rect x="900.951" y="366.156" width="4" height="682.749" transform="rotate(45 900.951 366.156)" fill="#020202"/>
<rect x="905.59" y="372.832" width="4" height="682.749" transform="rotate(45 905.59 372.832)" fill="#020202"/>
<rect x="912.265" y="377.47" width="4" height="682.749" transform="rotate(45 912.265 377.47)" fill="#020202"/>
<rect x="916.903" y="384.146" width="4" height="682.749" transform="rotate(45 916.903 384.146)" fill="#020202"/>
<rect x="923.579" y="388.784" width="4" height="682.749" transform="rotate(45 923.579 388.784)" fill="#020202"/>
<rect x="928.217" y="395.459" width="4" height="682.749" transform="rotate(45 928.217 395.459)" fill="#020202"/>
<rect x="934.893" y="400.098" width="4" height="682.749" transform="rotate(45 934.893 400.098)" fill="#020202"/>
<rect x="940.55" y="405.754" width="4" height="682.749" transform="rotate(45 940.55 405.754)" fill="#020202"/>
</g>
</svg>
