<svg width="95" height="95" viewBox="0 0 95 95" fill="none" xmlns="http://www.w3.org/2000/svg">
<g clip-path="url(#clip0_901_104)">
<mask id="mask0_901_104" style="mask-type:alpha" maskUnits="userSpaceOnUse" x="0" y="0" width="95" height="95">
<circle cx="47.4678" cy="47.468" r="47" transform="rotate(45 47.4678 47.468)" fill="#BEBEBE"/>
</mask>
<g mask="url(#mask0_901_104)">
<path fill-rule="evenodd" clip-rule="evenodd" d="M82.8231 14.9412L79.9946 12.1128L79.2576 12.8499C78.5146 12.1666 77.7549 11.5116 76.98 10.8849L77.8729 9.992L75.0444 7.16357L73.7287 8.47926C72.8742 7.90234 72.005 7.35658 71.1225 6.84198L72.9227 5.04181L70.0942 2.21338L67.4117 4.89595C66.4327 4.43738 65.4411 4.01443 64.4389 3.6271L67.9734 0.0925869L65.145 -2.73584L60.1936 2.2156C59.062 1.89849 57.9209 1.62455 56.7728 1.39378L58.074 0.0925869L55.2456 -2.73584L51.8387 0.67102C50.4944 0.54618 49.1456 0.479063 47.7966 0.469671L53.1238 -4.85761L50.2954 -7.68604L41.8 0.809411C40.0685 1.01853 38.3464 1.32385 36.6424 1.72539L38.2752 0.0925869L35.4468 -2.73584L28.0644 4.64649C23.0512 6.91704 18.3547 10.113 14.2333 14.2345C10.1118 18.356 6.9158 23.0524 4.64525 28.0657L-2.73699 35.4479L0.0914364 38.2764L1.72414 36.6436C1.32261 38.3477 1.01728 40.0697 0.808167 41.8012L-4.85892 47.4683L-2.03049 50.2967L0.46843 47.7978C0.477824 49.1469 0.544941 50.4956 0.66978 51.84L-2.73715 55.2469L0.09128 58.0753L1.39254 56.7741C1.62331 57.9221 1.89725 59.0633 2.21436 60.1948L-2.73723 65.1464L0.0911963 67.9748L3.62586 64.4402C4.01319 65.4423 4.43613 66.4339 4.89471 67.4129L2.21199 70.0956L5.04042 72.9241L6.84074 71.1237C7.35534 72.0062 7.9011 72.8755 8.47803 73.73L7.16218 75.0458L9.99061 77.8743L10.8836 76.9812C11.5103 77.7562 12.1653 78.5158 12.8486 79.2588L12.1124 79.995L14.9408 82.8235L15.677 82.0872C16.42 82.7705 17.1797 83.4255 17.9546 84.0522L17.0616 84.9452L19.89 87.7737L21.2059 86.4578C22.0602 87.0346 22.9293 87.5802 23.8115 88.0947L22.0118 89.8945L24.8402 92.7229L27.5223 90.0408C28.5015 90.4995 29.4933 90.9226 30.4957 91.31L29.7894 92.0162L32.6179 94.8447L34.741 92.7215C35.8729 93.0387 37.0143 93.3126 38.1626 93.5434L34.7396 96.9664L37.5681 99.7948L43.0968 94.2661C44.4406 94.3909 45.7887 94.458 47.1371 94.4674L39.6889 101.916L42.5173 104.744L53.1336 94.1278C54.8659 93.9186 56.5888 93.6131 58.2935 93.2113L44.639 106.866L47.4675 109.694L66.8721 90.2897C71.8846 88.0192 76.5804 84.8235 80.7013 80.7025C84.8222 76.5816 88.018 71.8858 90.2884 66.8733L112.521 44.6404L109.693 41.812L93.2101 58.2948C93.6119 56.59 93.9173 54.8671 94.1265 53.1348L107.571 39.6902L104.743 36.8618L94.4661 47.1384C94.4567 45.7899 94.3896 44.4418 94.2649 43.098L102.622 34.741L99.7935 31.9126L93.5422 38.1638C93.3114 37.0155 93.0374 35.8741 92.7202 34.7423L97.6717 29.7908L94.8433 26.9624L91.3087 30.4969C90.9213 29.4945 90.4983 28.5028 90.0396 27.5235L92.7225 24.8406L89.894 22.0122L88.0935 23.8127C87.579 22.9305 87.0334 22.0614 86.4566 21.2071L87.7723 19.8914L84.9438 17.063L84.051 17.9559C83.4243 17.1809 82.7693 16.4213 82.086 15.6783L82.8231 14.9412ZM84.051 17.9559C84.9054 19.0124 85.7073 20.0973 86.4566 21.2071L21.2059 86.4578C20.096 85.7085 19.0111 84.9066 17.9546 84.0522L84.051 17.9559ZM88.0935 23.8127L23.8115 88.0947C25.0249 88.8024 26.2632 89.451 27.5223 90.0408L90.0396 27.5235C89.4498 26.2645 88.8011 25.0261 88.0935 23.8127ZM91.3087 30.4969C91.8484 31.8932 92.3189 33.3101 92.7202 34.7423L34.741 92.7215C33.3089 92.3201 31.892 91.8496 30.4957 91.31L91.3087 30.4969ZM93.5422 38.1638L38.1626 93.5434C39.7958 93.8717 41.443 94.1126 43.0968 94.2661L94.2649 43.098C94.1113 41.4442 93.8704 39.797 93.5422 38.1638ZM94.4661 47.1384C94.4801 49.1408 94.3669 51.144 94.1265 53.1348L53.1336 94.1278C51.1428 94.3681 49.1396 94.4814 47.1371 94.4674L94.4661 47.1384ZM93.2101 58.2948L58.2935 93.2113C61.221 92.5214 64.0951 91.5475 66.8721 90.2897L90.2884 66.8733C91.5463 64.0964 92.5202 61.2222 93.2101 58.2948ZM82.086 15.6783L15.677 82.0872C15.1885 81.6379 14.7071 81.1763 14.2333 80.7025C13.7595 80.2288 13.2979 79.7474 12.8486 79.2588L79.2576 12.8499C79.7461 13.2992 80.2275 13.7607 80.7013 14.2345C81.1751 14.7083 81.6367 15.1897 82.086 15.6783ZM10.8836 76.9812L76.98 10.8849C75.9235 10.0304 74.8386 9.22857 73.7287 8.47926L8.47803 73.73C9.22733 74.8398 10.0292 75.9247 10.8836 76.9812ZM6.84074 71.1237C6.13314 69.9103 5.48447 68.672 4.89471 67.4129L67.4117 4.89595C68.6708 5.4857 69.9091 6.13438 71.1225 6.84198L6.84074 71.1237ZM3.62586 64.4402C3.08621 63.0439 2.61571 61.627 2.21436 60.1948L60.1936 2.2156C61.6258 2.61695 63.0426 3.08745 64.4389 3.6271L3.62586 64.4402ZM1.39254 56.7741L56.7728 1.39378C55.1397 1.06551 53.4925 0.824591 51.8387 0.67102L0.66978 51.84C0.82335 53.4938 1.06427 55.141 1.39254 56.7741ZM0.46843 47.7978C0.454488 45.7953 0.56773 43.792 0.808167 41.8012L41.8 0.809411C43.7908 0.568976 45.794 0.455729 47.7966 0.469671L0.46843 47.7978ZM1.72414 36.6436C2.41392 33.7164 3.38763 30.8424 4.64525 28.0657L28.0644 4.64649C30.8412 3.38887 33.7152 2.41517 36.6424 1.72539L1.72414 36.6436Z" fill="#404040"/>
</g>
</g>
<defs>
<clipPath id="clip0_901_104">
<rect width="95" height="95" fill="white"/>
</clipPath>
</defs>
</svg>
