<svg width="582" height="213" viewBox="0 0 582 213" fill="none" xmlns="http://www.w3.org/2000/svg">
<mask id="mask0_687_9257" style="mask-type:alpha" maskUnits="userSpaceOnUse" x="487" y="27" width="95" height="95">
<rect x="487.5" y="27.5" width="94" height="94" fill="#D9D9D9" stroke="#404040"/>
</mask>
<g mask="url(#mask0_687_9257)">
<rect x="487.5" y="27.5" width="479" height="471" fill="#404040" stroke="#404040"/>
<rect x="736.795" y="-223" width="4" height="682.749" transform="rotate(45 736.795 -223)" fill="#020202"/>
<rect x="741.434" y="-216.325" width="4" height="682.749" transform="rotate(45 741.434 -216.325)" fill="#020202"/>
<rect x="748.109" y="-211.687" width="4" height="682.749" transform="rotate(45 748.109 -211.687)" fill="#020202"/>
<rect x="752.746" y="-205.011" width="4" height="682.749" transform="rotate(45 752.746 -205.011)" fill="#020202"/>
<rect x="759.422" y="-200.373" width="4" height="682.749" transform="rotate(45 759.422 -200.373)" fill="#020202"/>
<rect x="764.061" y="-193.697" width="4" height="682.749" transform="rotate(45 764.061 -193.697)" fill="#020202"/>
<rect x="770.736" y="-189.059" width="4" height="682.749" transform="rotate(45 770.736 -189.059)" fill="#020202"/>
<rect x="775.375" y="-182.383" width="4" height="682.749" transform="rotate(45 775.375 -182.383)" fill="#020202"/>
<rect x="782.049" y="-177.745" width="4" height="682.749" transform="rotate(45 782.049 -177.745)" fill="#020202"/>
<rect x="786.688" y="-171.07" width="4" height="682.749" transform="rotate(45 786.688 -171.07)" fill="#020202"/>
<rect x="793.363" y="-166.432" width="4" height="682.749" transform="rotate(45 793.363 -166.432)" fill="#020202"/>
<rect x="798.002" y="-159.756" width="4" height="682.749" transform="rotate(45 798.002 -159.756)" fill="#020202"/>
<rect x="804.678" y="-155.118" width="4" height="682.749" transform="rotate(45 804.678 -155.118)" fill="#020202"/>
<rect x="809.316" y="-148.442" width="4" height="682.749" transform="rotate(45 809.316 -148.442)" fill="#020202"/>
<rect x="815.99" y="-143.804" width="4" height="682.749" transform="rotate(45 815.99 -143.804)" fill="#020202"/>
<rect x="820.629" y="-137.129" width="4" height="682.749" transform="rotate(45 820.629 -137.129)" fill="#020202"/>
<rect x="827.305" y="-132.49" width="4" height="682.749" transform="rotate(45 827.305 -132.49)" fill="#020202"/>
<rect x="831.943" y="-125.815" width="4" height="682.749" transform="rotate(45 831.943 -125.815)" fill="#020202"/>
<rect x="838.619" y="-121.177" width="4" height="682.749" transform="rotate(45 838.619 -121.177)" fill="#020202"/>
<rect x="843.256" y="-114.501" width="4" height="682.749" transform="rotate(45 843.256 -114.501)" fill="#020202"/>
<rect x="849.932" y="-109.863" width="4" height="682.749" transform="rotate(45 849.932 -109.863)" fill="#020202"/>
<rect x="854.57" y="-103.188" width="4" height="682.749" transform="rotate(45 854.57 -103.188)" fill="#020202"/>
<rect x="861.246" y="-98.5493" width="4" height="682.749" transform="rotate(45 861.246 -98.5493)" fill="#020202"/>
<rect x="865.885" y="-91.874" width="4" height="682.749" transform="rotate(45 865.885 -91.874)" fill="#020202"/>
<rect x="872.559" y="-87.2354" width="4" height="682.749" transform="rotate(45 872.559 -87.2354)" fill="#020202"/>
<rect x="877.197" y="-80.5601" width="4" height="682.749" transform="rotate(45 877.197 -80.5601)" fill="#020202"/>
<rect x="883.873" y="-75.9219" width="4" height="682.749" transform="rotate(45 883.873 -75.9219)" fill="#020202"/>
<rect x="888.512" y="-69.2466" width="4" height="682.749" transform="rotate(45 888.512 -69.2466)" fill="#020202"/>
<rect x="895.188" y="-64.6079" width="4" height="682.749" transform="rotate(45 895.188 -64.6079)" fill="#020202"/>
<rect x="899.824" y="-57.9326" width="4" height="682.749" transform="rotate(45 899.824 -57.9326)" fill="#020202"/>
<rect x="906.5" y="-53.2944" width="4" height="682.749" transform="rotate(45 906.5 -53.2944)" fill="#020202"/>
<rect x="911.139" y="-46.6191" width="4" height="682.749" transform="rotate(45 911.139 -46.6191)" fill="#020202"/>
<rect x="917.814" y="-41.9805" width="4" height="682.749" transform="rotate(45 917.814 -41.9805)" fill="#020202"/>
<rect x="922.453" y="-35.3052" width="4" height="682.749" transform="rotate(45 922.453 -35.3052)" fill="#020202"/>
<rect x="929.129" y="-30.667" width="4" height="682.749" transform="rotate(45 929.129 -30.667)" fill="#020202"/>
<rect x="933.766" y="-23.9917" width="4" height="682.749" transform="rotate(45 933.766 -23.9917)" fill="#020202"/>
<rect x="940.441" y="-19.353" width="4" height="682.749" transform="rotate(45 940.441 -19.353)" fill="#020202"/>
<rect x="945.08" y="-12.6777" width="4" height="682.749" transform="rotate(45 945.08 -12.6777)" fill="#020202"/>
<rect x="951.756" y="-8.03955" width="4" height="682.749" transform="rotate(45 951.756 -8.03955)" fill="#020202"/>
<rect x="956.395" y="-1.36426" width="4" height="682.749" transform="rotate(45 956.395 -1.36426)" fill="#020202"/>
<rect x="963.068" y="3.27393" width="4" height="682.749" transform="rotate(45 963.068 3.27393)" fill="#020202"/>
<rect x="967.707" y="9.94971" width="4" height="682.749" transform="rotate(45 967.707 9.94971)" fill="#020202"/>
<rect x="974.383" y="14.5879" width="4" height="682.749" transform="rotate(45 974.383 14.5879)" fill="#020202"/>
<rect x="979.021" y="21.2632" width="4" height="682.749" transform="rotate(45 979.021 21.2632)" fill="#020202"/>
<rect x="985.697" y="25.9014" width="4" height="682.749" transform="rotate(45 985.697 25.9014)" fill="#020202"/>
<rect x="990.334" y="32.5771" width="4" height="682.749" transform="rotate(45 990.334 32.5771)" fill="#020202"/>
<rect x="997.01" y="37.2153" width="4" height="682.749" transform="rotate(45 997.01 37.2153)" fill="#020202"/>
<rect x="1001.65" y="43.8906" width="4" height="682.749" transform="rotate(45 1001.65 43.8906)" fill="#020202"/>
<rect x="1008.32" y="48.5288" width="4" height="682.749" transform="rotate(45 1008.32 48.5288)" fill="#020202"/>
<rect x="1012.96" y="55.2046" width="4" height="682.749" transform="rotate(45 1012.96 55.2046)" fill="#020202"/>
<rect x="1019.64" y="59.8428" width="4" height="682.749" transform="rotate(45 1019.64 59.8428)" fill="#020202"/>
<rect x="1024.28" y="66.5181" width="4" height="682.749" transform="rotate(45 1024.28 66.5181)" fill="#020202"/>
<rect x="1030.95" y="71.1562" width="4" height="682.749" transform="rotate(45 1030.95 71.1562)" fill="#020202"/>
<rect x="1035.59" y="77.8315" width="4" height="682.749" transform="rotate(45 1035.59 77.8315)" fill="#020202"/>
<rect x="1042.27" y="82.4702" width="4" height="682.749" transform="rotate(45 1042.27 82.4702)" fill="#020202"/>
<rect x="1046.9" y="89.1455" width="4" height="682.749" transform="rotate(45 1046.9 89.1455)" fill="#020202"/>
<rect x="1053.58" y="93.7837" width="4" height="682.749" transform="rotate(45 1053.58 93.7837)" fill="#020202"/>
<rect x="1058.22" y="100.459" width="4" height="682.749" transform="rotate(45 1058.22 100.459)" fill="#020202"/>
</g>
<rect x="273" y="44" width="61" height="61" fill="#BEBEBE"/>
<path d="M271.083 22.6436H273.025V32H271.083V22.6436ZM277.963 26.4204C277.35 26.4204 276.929 26.6807 276.7 27.2012C276.582 27.4762 276.522 27.8275 276.522 28.2549V32H274.72V25.0938H276.465V26.103C276.698 25.7476 276.918 25.4915 277.125 25.335C277.498 25.0557 277.97 24.916 278.541 24.916C279.256 24.916 279.84 25.1043 280.293 25.481C280.75 25.8534 280.979 26.4733 280.979 27.3408V32H279.125V27.7915C279.125 27.4276 279.076 27.1483 278.979 26.9536C278.801 26.5981 278.463 26.4204 277.963 26.4204ZM285.822 30.7114V32.0635L284.965 32.0952C284.11 32.1248 283.526 31.9767 283.213 31.6509C283.01 31.4435 282.908 31.124 282.908 30.6924V26.4331H281.943V25.1445H282.908V23.2148H284.698V25.1445H285.822V26.4331H284.698V30.0894C284.698 30.3729 284.734 30.5506 284.806 30.6226C284.878 30.6903 285.098 30.7241 285.466 30.7241C285.521 30.7241 285.578 30.7241 285.638 30.7241C285.701 30.7199 285.763 30.7157 285.822 30.7114ZM292.906 29.9688C292.859 30.3792 292.646 30.7961 292.265 31.2192C291.672 31.8921 290.843 32.2285 289.776 32.2285C288.896 32.2285 288.12 31.945 287.447 31.3779C286.774 30.8109 286.438 29.8883 286.438 28.6104C286.438 27.4128 286.74 26.4945 287.345 25.8555C287.955 25.2165 288.744 24.897 289.713 24.897C290.288 24.897 290.807 25.0049 291.268 25.2207C291.729 25.4365 292.11 25.7772 292.411 26.2427C292.681 26.6532 292.857 27.1292 292.938 27.6709C292.984 27.9883 293.003 28.4453 292.995 29.042H288.259C288.285 29.736 288.503 30.2227 288.913 30.502C289.163 30.6755 289.463 30.7622 289.814 30.7622C290.187 30.7622 290.489 30.6564 290.722 30.4448C290.849 30.3306 290.961 30.1719 291.059 29.9688H292.906ZM291.116 27.8486C291.086 27.3704 290.94 27.0086 290.678 26.7632C290.42 26.5135 290.098 26.3887 289.713 26.3887C289.294 26.3887 288.968 26.5199 288.735 26.7822C288.507 27.0446 288.363 27.4001 288.304 27.8486H291.116ZM297.698 26.7505C296.97 26.7505 296.482 26.9875 296.232 27.4614C296.092 27.728 296.022 28.1385 296.022 28.6929V32H294.201V25.0811H295.927V26.2871C296.207 25.8258 296.45 25.5106 296.657 25.3413C296.996 25.0578 297.436 24.916 297.978 24.916C298.011 24.916 298.039 24.9181 298.06 24.9224C298.085 24.9224 298.138 24.9245 298.219 24.9287V26.7822C298.104 26.7695 298.003 26.7611 297.914 26.7568C297.825 26.7526 297.753 26.7505 297.698 26.7505ZM299.545 25.8301C300.024 25.2207 300.845 24.916 302.008 24.916C302.766 24.916 303.439 25.0662 304.027 25.3667C304.615 25.6672 304.909 26.2342 304.909 27.0679V30.2417C304.909 30.4618 304.913 30.7284 304.922 31.0415C304.935 31.2785 304.971 31.4393 305.03 31.5239C305.089 31.6086 305.178 31.6784 305.296 31.7334V32H303.329C303.274 31.8604 303.236 31.7292 303.214 31.6064C303.193 31.4837 303.176 31.3441 303.164 31.1875C302.914 31.4583 302.626 31.689 302.3 31.8794C301.911 32.1037 301.471 32.2158 300.98 32.2158C300.354 32.2158 299.835 32.0381 299.425 31.6826C299.019 31.3229 298.815 30.8151 298.815 30.1592C298.815 29.3086 299.143 28.6929 299.799 28.312C300.159 28.1047 300.688 27.9565 301.386 27.8677L302.002 27.7915C302.336 27.7492 302.575 27.6963 302.719 27.6328C302.977 27.5228 303.106 27.3514 303.106 27.1187C303.106 26.8351 303.007 26.6405 302.808 26.5347C302.613 26.4246 302.326 26.3696 301.945 26.3696C301.517 26.3696 301.215 26.4754 301.037 26.687C300.91 26.8436 300.826 27.0552 300.783 27.3218H299.038C299.076 26.7166 299.245 26.2194 299.545 25.8301ZM300.891 30.6924C301.06 30.832 301.268 30.9019 301.513 30.9019C301.903 30.9019 302.26 30.7876 302.586 30.5591C302.916 30.3306 303.087 29.9137 303.1 29.3086V28.6357C302.986 28.7077 302.869 28.7669 302.751 28.8135C302.637 28.8558 302.478 28.896 302.275 28.9341L301.869 29.0103C301.488 29.078 301.215 29.1605 301.05 29.2578C300.771 29.4229 300.631 29.6789 300.631 30.0259C300.631 30.3348 300.718 30.557 300.891 30.6924ZM312.507 27.563H310.654C310.62 27.3049 310.533 27.0721 310.394 26.8647C310.19 26.5854 309.875 26.4458 309.448 26.4458C308.838 26.4458 308.422 26.7484 308.197 27.3535C308.079 27.6751 308.02 28.1025 308.02 28.6357C308.02 29.1436 308.079 29.5519 308.197 29.8608C308.413 30.4364 308.819 30.7241 309.416 30.7241C309.839 30.7241 310.14 30.6099 310.317 30.3813C310.495 30.1528 310.603 29.8566 310.641 29.4927H312.488C312.446 30.0428 312.247 30.5633 311.892 31.0542C311.325 31.8455 310.485 32.2412 309.372 32.2412C308.259 32.2412 307.44 31.9111 306.915 31.251C306.39 30.5908 306.128 29.7339 306.128 28.6802C306.128 27.491 306.418 26.5664 306.998 25.9062C307.577 25.2461 308.377 24.916 309.397 24.916C310.264 24.916 310.973 25.1107 311.523 25.5C312.078 25.8893 312.406 26.577 312.507 27.563ZM316.925 30.7114V32.0635L316.068 32.0952C315.214 32.1248 314.63 31.9767 314.316 31.6509C314.113 31.4435 314.012 31.124 314.012 30.6924V26.4331H313.047V25.1445H314.012V23.2148H315.802V25.1445H316.925V26.4331H315.802V30.0894C315.802 30.3729 315.838 30.5506 315.91 30.6226C315.982 30.6903 316.202 30.7241 316.57 30.7241C316.625 30.7241 316.682 30.7241 316.741 30.7241C316.805 30.7199 316.866 30.7157 316.925 30.7114ZM319.947 25.0811V32H318.112V25.0811H319.947ZM319.947 22.5864V24.2559H318.112V22.5864H319.947ZM327.475 25.957C328.059 26.6891 328.351 27.5545 328.351 28.5532C328.351 29.5688 328.059 30.4385 327.475 31.1621C326.891 31.8815 326.005 32.2412 324.815 32.2412C323.626 32.2412 322.74 31.8815 322.156 31.1621C321.572 30.4385 321.28 29.5688 321.28 28.5532C321.28 27.5545 321.572 26.6891 322.156 25.957C322.74 25.2249 323.626 24.8589 324.815 24.8589C326.005 24.8589 326.891 25.2249 327.475 25.957ZM324.809 26.3887C324.28 26.3887 323.872 26.577 323.584 26.9536C323.3 27.326 323.159 27.8592 323.159 28.5532C323.159 29.2472 323.3 29.7826 323.584 30.1592C323.872 30.5358 324.28 30.7241 324.809 30.7241C325.338 30.7241 325.744 30.5358 326.028 30.1592C326.311 29.7826 326.453 29.2472 326.453 28.5532C326.453 27.8592 326.311 27.326 326.028 26.9536C325.744 26.577 325.338 26.3887 324.809 26.3887ZM332.909 26.4204C332.295 26.4204 331.874 26.6807 331.646 27.2012C331.527 27.4762 331.468 27.8275 331.468 28.2549V32H329.665V25.0938H331.411V26.103C331.643 25.7476 331.863 25.4915 332.071 25.335C332.443 25.0557 332.915 24.916 333.486 24.916C334.201 24.916 334.785 25.1043 335.238 25.481C335.695 25.8534 335.924 26.4733 335.924 27.3408V32H334.07V27.7915C334.07 27.4276 334.022 27.1483 333.924 26.9536C333.747 26.5981 333.408 26.4204 332.909 26.4204Z" fill="#BEBEBE"/>
<rect x="25.5" y="25.5" width="94" height="94" stroke="#404040"/>
<rect x="13.5" y="37.5" width="94" height="94" fill="#020202" stroke="#404040"/>
<mask id="mask1_687_9257" style="mask-type:alpha" maskUnits="userSpaceOnUse" x="0" y="50" width="95" height="95">
<rect x="0.5" y="50.5" width="94" height="94" fill="#D9D9D9" stroke="#404040"/>
</mask>
<g mask="url(#mask1_687_9257)">
<rect x="0.5" y="50.5" width="479" height="471" fill="#404040" stroke="#404040"/>
<rect x="249.795" y="-200" width="4" height="682.749" transform="rotate(45 249.795 -200)" fill="#020202"/>
<rect x="254.434" y="-193.325" width="4" height="682.749" transform="rotate(45 254.434 -193.325)" fill="#020202"/>
<rect x="261.109" y="-188.687" width="4" height="682.749" transform="rotate(45 261.109 -188.687)" fill="#020202"/>
<rect x="265.746" y="-182.011" width="4" height="682.749" transform="rotate(45 265.746 -182.011)" fill="#020202"/>
<rect x="272.422" y="-177.373" width="4" height="682.749" transform="rotate(45 272.422 -177.373)" fill="#020202"/>
<rect x="277.061" y="-170.697" width="4" height="682.749" transform="rotate(45 277.061 -170.697)" fill="#020202"/>
<rect x="283.736" y="-166.059" width="4" height="682.749" transform="rotate(45 283.736 -166.059)" fill="#020202"/>
<rect x="288.375" y="-159.383" width="4" height="682.749" transform="rotate(45 288.375 -159.383)" fill="#020202"/>
<rect x="295.049" y="-154.745" width="4" height="682.749" transform="rotate(45 295.049 -154.745)" fill="#020202"/>
<rect x="299.688" y="-148.07" width="4" height="682.749" transform="rotate(45 299.688 -148.07)" fill="#020202"/>
<rect x="306.363" y="-143.432" width="4" height="682.749" transform="rotate(45 306.363 -143.432)" fill="#020202"/>
<rect x="311.002" y="-136.756" width="4" height="682.749" transform="rotate(45 311.002 -136.756)" fill="#020202"/>
<rect x="317.678" y="-132.118" width="4" height="682.749" transform="rotate(45 317.678 -132.118)" fill="#020202"/>
<rect x="322.316" y="-125.442" width="4" height="682.749" transform="rotate(45 322.316 -125.442)" fill="#020202"/>
<rect x="328.99" y="-120.804" width="4" height="682.749" transform="rotate(45 328.99 -120.804)" fill="#020202"/>
<rect x="333.629" y="-114.129" width="4" height="682.749" transform="rotate(45 333.629 -114.129)" fill="#020202"/>
<rect x="340.305" y="-109.49" width="4" height="682.749" transform="rotate(45 340.305 -109.49)" fill="#020202"/>
<rect x="344.943" y="-102.815" width="4" height="682.749" transform="rotate(45 344.943 -102.815)" fill="#020202"/>
<rect x="351.619" y="-98.1768" width="4" height="682.749" transform="rotate(45 351.619 -98.1768)" fill="#020202"/>
<rect x="356.256" y="-91.5015" width="4" height="682.749" transform="rotate(45 356.256 -91.5015)" fill="#020202"/>
<rect x="362.932" y="-86.8628" width="4" height="682.749" transform="rotate(45 362.932 -86.8628)" fill="#020202"/>
<rect x="367.57" y="-80.1875" width="4" height="682.749" transform="rotate(45 367.57 -80.1875)" fill="#020202"/>
<rect x="374.246" y="-75.5493" width="4" height="682.749" transform="rotate(45 374.246 -75.5493)" fill="#020202"/>
<rect x="378.885" y="-68.874" width="4" height="682.749" transform="rotate(45 378.885 -68.874)" fill="#020202"/>
<rect x="385.559" y="-64.2354" width="4" height="682.749" transform="rotate(45 385.559 -64.2354)" fill="#020202"/>
<rect x="390.197" y="-57.5601" width="4" height="682.749" transform="rotate(45 390.197 -57.5601)" fill="#020202"/>
<rect x="396.873" y="-52.9219" width="4" height="682.749" transform="rotate(45 396.873 -52.9219)" fill="#020202"/>
<rect x="401.512" y="-46.2466" width="4" height="682.749" transform="rotate(45 401.512 -46.2466)" fill="#020202"/>
<rect x="408.188" y="-41.6079" width="4" height="682.749" transform="rotate(45 408.188 -41.6079)" fill="#020202"/>
<rect x="412.824" y="-34.9326" width="4" height="682.749" transform="rotate(45 412.824 -34.9326)" fill="#020202"/>
<rect x="419.5" y="-30.2944" width="4" height="682.749" transform="rotate(45 419.5 -30.2944)" fill="#020202"/>
<rect x="424.139" y="-23.6191" width="4" height="682.749" transform="rotate(45 424.139 -23.6191)" fill="#020202"/>
<rect x="430.814" y="-18.9805" width="4" height="682.749" transform="rotate(45 430.814 -18.9805)" fill="#020202"/>
<rect x="435.453" y="-12.3052" width="4" height="682.749" transform="rotate(45 435.453 -12.3052)" fill="#020202"/>
<rect x="442.129" y="-7.66699" width="4" height="682.749" transform="rotate(45 442.129 -7.66699)" fill="#020202"/>
<rect x="446.766" y="-0.991699" width="4" height="682.749" transform="rotate(45 446.766 -0.991699)" fill="#020202"/>
<rect x="453.441" y="3.64697" width="4" height="682.749" transform="rotate(45 453.441 3.64697)" fill="#020202"/>
<rect x="458.08" y="10.3223" width="4" height="682.749" transform="rotate(45 458.08 10.3223)" fill="#020202"/>
<rect x="464.756" y="14.9604" width="4" height="682.749" transform="rotate(45 464.756 14.9604)" fill="#020202"/>
<rect x="469.395" y="21.6357" width="4" height="682.749" transform="rotate(45 469.395 21.6357)" fill="#020202"/>
<rect x="476.068" y="26.2739" width="4" height="682.749" transform="rotate(45 476.068 26.2739)" fill="#020202"/>
<rect x="480.707" y="32.9497" width="4" height="682.749" transform="rotate(45 480.707 32.9497)" fill="#020202"/>
<rect x="487.383" y="37.5879" width="4" height="682.749" transform="rotate(45 487.383 37.5879)" fill="#020202"/>
<rect x="492.021" y="44.2632" width="4" height="682.749" transform="rotate(45 492.021 44.2632)" fill="#020202"/>
<rect x="498.697" y="48.9014" width="4" height="682.749" transform="rotate(45 498.697 48.9014)" fill="#020202"/>
<rect x="503.334" y="55.5771" width="4" height="682.749" transform="rotate(45 503.334 55.5771)" fill="#020202"/>
<rect x="510.01" y="60.2153" width="4" height="682.749" transform="rotate(45 510.01 60.2153)" fill="#020202"/>
<rect x="514.648" y="66.8906" width="4" height="682.749" transform="rotate(45 514.648 66.8906)" fill="#020202"/>
<rect x="521.324" y="71.5288" width="4" height="682.749" transform="rotate(45 521.324 71.5288)" fill="#020202"/>
<rect x="525.963" y="78.2046" width="4" height="682.749" transform="rotate(45 525.963 78.2046)" fill="#020202"/>
<rect x="532.637" y="82.8428" width="4" height="682.749" transform="rotate(45 532.637 82.8428)" fill="#020202"/>
<rect x="537.275" y="89.5181" width="4" height="682.749" transform="rotate(45 537.275 89.5181)" fill="#020202"/>
<rect x="543.951" y="94.1562" width="4" height="682.749" transform="rotate(45 543.951 94.1562)" fill="#020202"/>
<rect x="548.59" y="100.832" width="4" height="682.749" transform="rotate(45 548.59 100.832)" fill="#020202"/>
<rect x="555.266" y="105.47" width="4" height="682.749" transform="rotate(45 555.266 105.47)" fill="#020202"/>
<rect x="559.904" y="112.146" width="4" height="682.749" transform="rotate(45 559.904 112.146)" fill="#020202"/>
<rect x="566.578" y="116.784" width="4" height="682.749" transform="rotate(45 566.578 116.784)" fill="#020202"/>
<rect x="571.217" y="123.459" width="4" height="682.749" transform="rotate(45 571.217 123.459)" fill="#020202"/>
</g>
<path d="M53.749 11.6479C54.2103 11.6479 54.5848 11.5972 54.8726 11.4956C55.4185 11.3009 55.6914 10.9391 55.6914 10.4102C55.6914 10.1012 55.556 9.86214 55.2852 9.69287C55.0143 9.52783 54.589 9.38184 54.0093 9.25488L53.019 9.03271C52.0457 8.81266 51.3729 8.57357 51.0005 8.31543C50.37 7.88379 50.0547 7.20882 50.0547 6.29053C50.0547 5.45264 50.3594 4.75651 50.9688 4.20215C51.5781 3.64779 52.4731 3.37061 53.6538 3.37061C54.6398 3.37061 55.4798 3.63298 56.1738 4.15771C56.8721 4.67822 57.2381 5.43571 57.272 6.43018H55.3931C55.3592 5.86735 55.1138 5.46745 54.6567 5.23047C54.3521 5.07389 53.9733 4.99561 53.5205 4.99561C53.0169 4.99561 52.6149 5.09717 52.3145 5.30029C52.014 5.50342 51.8638 5.78695 51.8638 6.15088C51.8638 6.48519 52.0119 6.73486 52.3081 6.8999C52.4985 7.00993 52.9048 7.139 53.5269 7.28711L55.1392 7.67432C55.8459 7.84359 56.3791 8.06999 56.7388 8.35352C57.2974 8.79362 57.5767 9.4305 57.5767 10.2642C57.5767 11.119 57.2487 11.8299 56.5928 12.397C55.9411 12.9598 55.0186 13.2412 53.8252 13.2412C52.6064 13.2412 51.6479 12.964 50.9497 12.4097C50.2515 11.8511 49.9023 11.0851 49.9023 10.1118H51.7686C51.8278 10.5392 51.9442 10.8587 52.1177 11.0703C52.4351 11.4554 52.9788 11.6479 53.749 11.6479ZM61.6899 11.1846L63.1182 6.08105H65.0415L62.6675 12.8857C62.2104 14.1976 61.8486 15.0101 61.582 15.3232C61.3154 15.6406 60.7822 15.7993 59.9824 15.7993C59.8216 15.7993 59.6925 15.7972 59.5952 15.793C59.4979 15.793 59.3519 15.7866 59.1572 15.7739V14.3267L59.3857 14.3394C59.5635 14.3478 59.7327 14.3415 59.8936 14.3203C60.0544 14.2992 60.1898 14.2505 60.2998 14.1743C60.4056 14.1024 60.5029 13.9521 60.5918 13.7236C60.6849 13.4951 60.723 13.3555 60.7061 13.3047L58.167 6.08105H60.1792L61.6899 11.1846ZM70.8813 6.39844C71.423 6.74544 71.734 7.34212 71.8145 8.18848H70.0054C69.98 7.95573 69.9144 7.77165 69.8086 7.63623C69.6097 7.39079 69.2712 7.26807 68.793 7.26807C68.3994 7.26807 68.118 7.32943 67.9487 7.45215C67.7837 7.57487 67.7012 7.71875 67.7012 7.88379C67.7012 8.09115 67.79 8.24137 67.9678 8.33447C68.1455 8.4318 68.7739 8.59896 69.853 8.83594C70.5724 9.00521 71.112 9.26123 71.4717 9.604C71.8271 9.95101 72.0049 10.3848 72.0049 10.9053C72.0049 11.5908 71.7489 12.1515 71.2368 12.5874C70.729 13.019 69.9419 13.2349 68.8755 13.2349C67.7879 13.2349 66.9839 13.0063 66.4634 12.5493C65.9471 12.0881 65.689 11.502 65.689 10.791H67.5234C67.5615 11.1126 67.644 11.3411 67.771 11.4766C67.9953 11.7178 68.41 11.8384 69.0151 11.8384C69.3706 11.8384 69.652 11.7855 69.8594 11.6797C70.071 11.5739 70.1768 11.4152 70.1768 11.2036C70.1768 11.0005 70.0921 10.846 69.9229 10.7402C69.7536 10.6344 69.1252 10.4525 68.0376 10.1943C67.2547 9.99967 66.7025 9.75635 66.3809 9.46436C66.0592 9.1766 65.8984 8.76188 65.8984 8.22021C65.8984 7.58122 66.1481 7.0332 66.6475 6.57617C67.151 6.11491 67.8577 5.88428 68.7676 5.88428C69.6309 5.88428 70.3354 6.05566 70.8813 6.39844ZM76.5181 11.7114V13.0635L75.6611 13.0952C74.8063 13.1248 74.2223 12.9767 73.9092 12.6509C73.7061 12.4435 73.6045 12.124 73.6045 11.6924V7.43311H72.6396V6.14453H73.6045V4.21484H75.3945V6.14453H76.5181V7.43311H75.3945V11.0894C75.3945 11.3729 75.4305 11.5506 75.5024 11.6226C75.5744 11.6903 75.7944 11.7241 76.1626 11.7241C76.2176 11.7241 76.2747 11.7241 76.334 11.7241C76.3975 11.7199 76.4588 11.7157 76.5181 11.7114ZM83.6021 10.9688C83.5555 11.3792 83.3418 11.7961 82.9609 12.2192C82.3685 12.8921 81.5391 13.2285 80.4727 13.2285C79.5924 13.2285 78.8159 12.945 78.1431 12.3779C77.4702 11.8109 77.1338 10.8883 77.1338 9.61035C77.1338 8.41276 77.4364 7.49447 78.0415 6.85547C78.6509 6.21647 79.4401 5.89697 80.4092 5.89697C80.9847 5.89697 81.5031 6.00488 81.9644 6.2207C82.4256 6.43652 82.8065 6.77718 83.1069 7.24268C83.3778 7.65316 83.5534 8.12923 83.6338 8.6709C83.6803 8.98828 83.6994 9.44531 83.6909 10.042H78.9556C78.981 10.736 79.1989 11.2227 79.6094 11.502C79.859 11.6755 80.1595 11.7622 80.5107 11.7622C80.8831 11.7622 81.1857 11.6564 81.4185 11.4448C81.5454 11.3306 81.6576 11.1719 81.7549 10.9688H83.6021ZM81.812 8.84863C81.7824 8.37044 81.6364 8.00863 81.374 7.76318C81.1159 7.51351 80.7943 7.38867 80.4092 7.38867C79.9902 7.38867 79.6644 7.51986 79.4316 7.78223C79.2031 8.0446 79.0592 8.40007 79 8.84863H81.812ZM88.8008 7.98535C88.6484 7.65104 88.3501 7.48389 87.9058 7.48389C87.3895 7.48389 87.0425 7.65104 86.8647 7.98535C86.7674 8.17578 86.7188 8.45931 86.7188 8.83594V13H84.8843V6.09375H86.6426V7.10303C86.8669 6.74333 87.0785 6.4873 87.2773 6.33496C87.6286 6.06413 88.0835 5.92871 88.6421 5.92871C89.1711 5.92871 89.5985 6.04508 89.9243 6.27783C90.1867 6.49365 90.3856 6.77083 90.521 7.10938C90.758 6.70312 91.0521 6.40479 91.4033 6.21436C91.7757 6.02393 92.1904 5.92871 92.6475 5.92871C92.9521 5.92871 93.2526 5.98796 93.5488 6.10645C93.8451 6.22493 94.1138 6.43229 94.355 6.72852C94.5496 6.96973 94.6808 7.26595 94.7485 7.61719C94.7909 7.84993 94.812 8.19059 94.812 8.63916L94.7993 13H92.9458V8.59473C92.9458 8.33236 92.9035 8.11654 92.8188 7.94727C92.658 7.62565 92.3618 7.46484 91.9302 7.46484C91.4308 7.46484 91.0859 7.6722 90.8955 8.08691C90.7982 8.30697 90.7495 8.57145 90.7495 8.88037V13H88.9277V8.88037C88.9277 8.46989 88.8854 8.17155 88.8008 7.98535Z" fill="#BEBEBE"/>
<path d="M88.7363 185.648C89.1976 185.648 89.5721 185.597 89.8599 185.496C90.4058 185.301 90.6787 184.939 90.6787 184.41C90.6787 184.101 90.5433 183.862 90.2725 183.693C90.0016 183.528 89.5763 183.382 88.9966 183.255L88.0063 183.033C87.033 182.813 86.3602 182.574 85.9878 182.315C85.3573 181.884 85.042 181.209 85.042 180.291C85.042 179.453 85.3467 178.757 85.9561 178.202C86.5654 177.648 87.4604 177.371 88.6411 177.371C89.6271 177.371 90.4671 177.633 91.1611 178.158C91.8594 178.678 92.2254 179.436 92.2593 180.43H90.3804C90.3465 179.867 90.1011 179.467 89.644 179.23C89.3394 179.074 88.9606 178.996 88.5078 178.996C88.0042 178.996 87.6022 179.097 87.3018 179.3C87.0013 179.503 86.8511 179.787 86.8511 180.151C86.8511 180.485 86.9992 180.735 87.2954 180.9C87.4858 181.01 87.8921 181.139 88.5142 181.287L90.1265 181.674C90.8332 181.844 91.3664 182.07 91.7261 182.354C92.2847 182.794 92.564 183.431 92.564 184.264C92.564 185.119 92.236 185.83 91.5801 186.397C90.9284 186.96 90.0059 187.241 88.8125 187.241C87.5938 187.241 86.6353 186.964 85.937 186.41C85.2388 185.851 84.8896 185.085 84.8896 184.112H86.7559C86.8151 184.539 86.9315 184.859 87.105 185.07C87.4224 185.455 87.9661 185.648 88.7363 185.648ZM99.7876 184.969C99.741 185.379 99.5273 185.796 99.1465 186.219C98.554 186.892 97.7246 187.229 96.6582 187.229C95.778 187.229 95.0015 186.945 94.3286 186.378C93.6558 185.811 93.3193 184.888 93.3193 183.61C93.3193 182.413 93.6219 181.494 94.2271 180.855C94.8364 180.216 95.6257 179.897 96.5947 179.897C97.1702 179.897 97.6886 180.005 98.1499 180.221C98.6112 180.437 98.992 180.777 99.2925 181.243C99.5633 181.653 99.7389 182.129 99.8193 182.671C99.8659 182.988 99.8849 183.445 99.8765 184.042H95.1411C95.1665 184.736 95.3844 185.223 95.7949 185.502C96.0446 185.675 96.3451 185.762 96.6963 185.762C97.0687 185.762 97.3713 185.656 97.604 185.445C97.731 185.331 97.8431 185.172 97.9404 184.969H99.7876ZM97.9976 182.849C97.9679 182.37 97.8219 182.009 97.5596 181.763C97.3014 181.514 96.9798 181.389 96.5947 181.389C96.1758 181.389 95.8499 181.52 95.6172 181.782C95.3887 182.045 95.2448 182.4 95.1855 182.849H97.9976ZM104.58 181.75C103.852 181.75 103.363 181.987 103.114 182.461C102.974 182.728 102.904 183.139 102.904 183.693V187H101.083V180.081H102.809V181.287C103.088 180.826 103.332 180.511 103.539 180.341C103.878 180.058 104.318 179.916 104.859 179.916C104.893 179.916 104.921 179.918 104.942 179.922C104.967 179.922 105.02 179.924 105.101 179.929V181.782C104.986 181.77 104.885 181.761 104.796 181.757C104.707 181.753 104.635 181.75 104.58 181.75ZM105.488 180.081H107.519L108.96 185.185L110.433 180.081H112.375L109.88 187H107.97L105.488 180.081ZM115.263 180.081V187H113.429V180.081H115.263ZM115.263 177.586V179.256H113.429V177.586H115.263ZM123.007 182.563H121.154C121.12 182.305 121.033 182.072 120.894 181.865C120.69 181.585 120.375 181.446 119.948 181.446C119.338 181.446 118.922 181.748 118.697 182.354C118.579 182.675 118.52 183.103 118.52 183.636C118.52 184.144 118.579 184.552 118.697 184.861C118.913 185.436 119.319 185.724 119.916 185.724C120.339 185.724 120.64 185.61 120.817 185.381C120.995 185.153 121.103 184.857 121.141 184.493H122.988C122.946 185.043 122.747 185.563 122.392 186.054C121.825 186.846 120.985 187.241 119.872 187.241C118.759 187.241 117.94 186.911 117.415 186.251C116.89 185.591 116.628 184.734 116.628 183.68C116.628 182.491 116.918 181.566 117.498 180.906C118.077 180.246 118.877 179.916 119.897 179.916C120.764 179.916 121.473 180.111 122.023 180.5C122.578 180.889 122.906 181.577 123.007 182.563ZM130.18 184.969C130.134 185.379 129.92 185.796 129.539 186.219C128.947 186.892 128.117 187.229 127.051 187.229C126.171 187.229 125.394 186.945 124.721 186.378C124.048 185.811 123.712 184.888 123.712 183.61C123.712 182.413 124.014 181.494 124.62 180.855C125.229 180.216 126.018 179.897 126.987 179.897C127.563 179.897 128.081 180.005 128.542 180.221C129.004 180.437 129.385 180.777 129.685 181.243C129.956 181.653 130.132 182.129 130.212 182.671C130.258 182.988 130.278 183.445 130.269 184.042H125.534C125.559 184.736 125.777 185.223 126.188 185.502C126.437 185.675 126.738 185.762 127.089 185.762C127.461 185.762 127.764 185.656 127.997 185.445C128.124 185.331 128.236 185.172 128.333 184.969H130.18ZM128.39 182.849C128.361 182.37 128.215 182.009 127.952 181.763C127.694 181.514 127.372 181.389 126.987 181.389C126.568 181.389 126.243 181.52 126.01 181.782C125.781 182.045 125.637 182.4 125.578 182.849H128.39Z" fill="#BEBEBE"/>
<path d="M372.788 182.912H368.243V185.318H373.422V187H366.332V177.644H373.194V179.3H368.243V181.287H372.788V182.912ZM380.963 187H378.71L377.517 184.924L376.317 187H374.121L376.482 183.496L374.222 180.094H376.438L377.593 182.1L378.723 180.094H380.875L378.602 183.464L380.963 187ZM387.832 180.824C388.39 181.42 388.669 182.296 388.669 183.452C388.669 184.67 388.394 185.599 387.844 186.238C387.298 186.877 386.594 187.197 385.73 187.197C385.18 187.197 384.723 187.059 384.359 186.784C384.16 186.632 383.966 186.41 383.775 186.118V189.723H381.985V180.081H383.718V181.103C383.913 180.803 384.12 180.566 384.34 180.392C384.742 180.083 385.221 179.929 385.775 179.929C386.583 179.929 387.269 180.227 387.832 180.824ZM386.803 183.541C386.803 183.007 386.681 182.535 386.435 182.125C386.194 181.715 385.8 181.509 385.254 181.509C384.598 181.509 384.148 181.82 383.902 182.442C383.775 182.772 383.712 183.191 383.712 183.699C383.712 184.503 383.926 185.068 384.353 185.394C384.607 185.584 384.907 185.68 385.254 185.68C385.758 185.68 386.141 185.485 386.403 185.096C386.67 184.706 386.803 184.188 386.803 183.541ZM395.906 184.969C395.859 185.379 395.646 185.796 395.265 186.219C394.672 186.892 393.843 187.229 392.776 187.229C391.896 187.229 391.12 186.945 390.447 186.378C389.774 185.811 389.438 184.888 389.438 183.61C389.438 182.413 389.74 181.494 390.345 180.855C390.955 180.216 391.744 179.897 392.713 179.897C393.288 179.897 393.807 180.005 394.268 180.221C394.729 180.437 395.11 180.777 395.411 181.243C395.681 181.653 395.857 182.129 395.938 182.671C395.984 182.988 396.003 183.445 395.995 184.042H391.259C391.285 184.736 391.503 185.223 391.913 185.502C392.163 185.675 392.463 185.762 392.814 185.762C393.187 185.762 393.489 185.656 393.722 185.445C393.849 185.331 393.961 185.172 394.059 184.969H395.906ZM394.116 182.849C394.086 182.37 393.94 182.009 393.678 181.763C393.42 181.514 393.098 181.389 392.713 181.389C392.294 181.389 391.968 181.52 391.735 181.782C391.507 182.045 391.363 182.4 391.304 182.849H394.116ZM400.698 181.75C399.97 181.75 399.482 181.987 399.232 182.461C399.092 182.728 399.022 183.139 399.022 183.693V187H397.201V180.081H398.927V181.287C399.207 180.826 399.45 180.511 399.657 180.341C399.996 180.058 400.436 179.916 400.978 179.916C401.011 179.916 401.039 179.918 401.06 179.922C401.085 179.922 401.138 179.924 401.219 179.929V181.782C401.104 181.77 401.003 181.761 400.914 181.757C400.825 181.753 400.753 181.75 400.698 181.75ZM404.145 180.081V187H402.311V180.081H404.145ZM404.145 177.586V179.256H402.311V177.586H404.145ZM411.826 184.969C411.779 185.379 411.565 185.796 411.185 186.219C410.592 186.892 409.763 187.229 408.696 187.229C407.816 187.229 407.04 186.945 406.367 186.378C405.694 185.811 405.357 184.888 405.357 183.61C405.357 182.413 405.66 181.494 406.265 180.855C406.875 180.216 407.664 179.897 408.633 179.897C409.208 179.897 409.727 180.005 410.188 180.221C410.649 180.437 411.03 180.777 411.331 181.243C411.601 181.653 411.777 182.129 411.857 182.671C411.904 182.988 411.923 183.445 411.915 184.042H407.179C407.205 184.736 407.423 185.223 407.833 185.502C408.083 185.675 408.383 185.762 408.734 185.762C409.107 185.762 409.409 185.656 409.642 185.445C409.769 185.331 409.881 185.172 409.979 184.969H411.826ZM410.036 182.849C410.006 182.37 409.86 182.009 409.598 181.763C409.34 181.514 409.018 181.389 408.633 181.389C408.214 181.389 407.888 181.52 407.655 181.782C407.427 182.045 407.283 182.4 407.224 182.849H410.036ZM416.396 181.42C415.782 181.42 415.361 181.681 415.133 182.201C415.014 182.476 414.955 182.827 414.955 183.255V187H413.152V180.094H414.898V181.103C415.131 180.748 415.351 180.492 415.558 180.335C415.931 180.056 416.402 179.916 416.974 179.916C417.689 179.916 418.273 180.104 418.726 180.481C419.183 180.853 419.411 181.473 419.411 182.341V187H417.558V182.792C417.558 182.428 417.509 182.148 417.412 181.954C417.234 181.598 416.895 181.42 416.396 181.42ZM427.073 182.563H425.219C425.185 182.305 425.099 182.072 424.959 181.865C424.756 181.585 424.441 181.446 424.013 181.446C423.404 181.446 422.987 181.748 422.763 182.354C422.644 182.675 422.585 183.103 422.585 183.636C422.585 184.144 422.644 184.552 422.763 184.861C422.979 185.436 423.385 185.724 423.981 185.724C424.405 185.724 424.705 185.61 424.883 185.381C425.061 185.153 425.168 184.857 425.207 184.493H427.054C427.011 185.043 426.812 185.563 426.457 186.054C425.89 186.846 425.05 187.241 423.937 187.241C422.824 187.241 422.005 186.911 421.48 186.251C420.956 185.591 420.693 184.734 420.693 183.68C420.693 182.491 420.983 181.566 421.563 180.906C422.143 180.246 422.943 179.916 423.962 179.916C424.83 179.916 425.539 180.111 426.089 180.5C426.643 180.889 426.971 181.577 427.073 182.563ZM434.246 184.969C434.199 185.379 433.985 185.796 433.604 186.219C433.012 186.892 432.183 187.229 431.116 187.229C430.236 187.229 429.459 186.945 428.787 186.378C428.114 185.811 427.777 184.888 427.777 183.61C427.777 182.413 428.08 181.494 428.685 180.855C429.294 180.216 430.084 179.897 431.053 179.897C431.628 179.897 432.147 180.005 432.608 180.221C433.069 180.437 433.45 180.777 433.75 181.243C434.021 181.653 434.197 182.129 434.277 182.671C434.324 182.988 434.343 183.445 434.334 184.042H429.599C429.625 184.736 429.842 185.223 430.253 185.502C430.503 185.675 430.803 185.762 431.154 185.762C431.527 185.762 431.829 185.656 432.062 185.445C432.189 185.331 432.301 185.172 432.398 184.969H434.246ZM432.456 182.849C432.426 182.37 432.28 182.009 432.018 181.763C431.759 181.514 431.438 181.389 431.053 181.389C430.634 181.389 430.308 181.52 430.075 181.782C429.847 182.045 429.703 182.4 429.644 182.849H432.456Z" fill="#BEBEBE"/>
<path d="M85.7808 199.675L87.5391 207.261L89.6465 199.675H91.0176L93.125 207.261L94.8833 199.675H96.2671L93.8169 209H92.4902L90.3384 201.269L88.1738 209H86.8472L84.4097 199.675H85.7808ZM97.2891 199.644H98.4316V203.122C98.7025 202.779 98.9458 202.538 99.1616 202.398C99.5298 202.157 99.9889 202.037 100.539 202.037C101.525 202.037 102.194 202.382 102.545 203.071C102.735 203.448 102.831 203.971 102.831 204.639V209H101.656V204.715C101.656 204.216 101.593 203.85 101.466 203.617C101.258 203.245 100.869 203.059 100.298 203.059C99.8239 203.059 99.3944 203.222 99.0093 203.547C98.6242 203.873 98.4316 204.489 98.4316 205.395V209H97.2891V199.644ZM105.401 207.191C105.401 207.521 105.522 207.781 105.763 207.972C106.004 208.162 106.29 208.257 106.62 208.257C107.022 208.257 107.411 208.164 107.788 207.978C108.423 207.669 108.74 207.163 108.74 206.461V205.541C108.601 205.629 108.421 205.703 108.201 205.763C107.981 205.822 107.765 205.864 107.553 205.89L106.861 205.979C106.447 206.034 106.136 206.12 105.928 206.239C105.577 206.438 105.401 206.755 105.401 207.191ZM108.169 204.88C108.431 204.847 108.607 204.736 108.696 204.55C108.747 204.449 108.772 204.303 108.772 204.112C108.772 203.723 108.632 203.442 108.353 203.268C108.078 203.09 107.682 203.001 107.166 203.001C106.569 203.001 106.146 203.162 105.896 203.484C105.757 203.662 105.666 203.926 105.624 204.277H104.557C104.578 203.439 104.849 202.858 105.37 202.532C105.894 202.202 106.502 202.037 107.191 202.037C107.991 202.037 108.641 202.189 109.14 202.494C109.635 202.798 109.883 203.272 109.883 203.916V207.832C109.883 207.951 109.906 208.046 109.953 208.118C110.003 208.19 110.107 208.226 110.264 208.226C110.314 208.226 110.372 208.223 110.435 208.219C110.499 208.211 110.566 208.2 110.638 208.188V209.032C110.46 209.083 110.325 209.114 110.232 209.127C110.139 209.14 110.012 209.146 109.851 209.146C109.458 209.146 109.172 209.006 108.994 208.727C108.901 208.579 108.835 208.369 108.797 208.099C108.565 208.403 108.23 208.668 107.794 208.892C107.359 209.116 106.878 209.229 106.354 209.229C105.723 209.229 105.207 209.038 104.805 208.657C104.407 208.272 104.208 207.792 104.208 207.216C104.208 206.586 104.405 206.097 104.798 205.75C105.192 205.403 105.708 205.189 106.347 205.109L108.169 204.88ZM111.99 200.304H113.146V202.202H114.231V203.135H113.146V207.572C113.146 207.809 113.226 207.967 113.387 208.048C113.476 208.094 113.624 208.118 113.831 208.118C113.886 208.118 113.945 208.118 114.009 208.118C114.072 208.113 114.146 208.107 114.231 208.099V209C114.1 209.038 113.962 209.066 113.818 209.083C113.679 209.099 113.526 209.108 113.361 209.108C112.828 209.108 112.466 208.972 112.276 208.702C112.085 208.427 111.99 208.071 111.99 207.635V203.135H111.07V202.202H111.99V200.304ZM123.245 202.202H124.508C124.347 202.638 123.989 203.632 123.435 205.185C123.02 206.353 122.673 207.305 122.394 208.042C121.734 209.777 121.268 210.834 120.998 211.215C120.727 211.596 120.261 211.787 119.601 211.787C119.44 211.787 119.315 211.78 119.227 211.768C119.142 211.755 119.036 211.732 118.909 211.698V210.657C119.108 210.712 119.252 210.746 119.341 210.758C119.43 210.771 119.508 210.777 119.576 210.777C119.787 210.777 119.942 210.741 120.039 210.669C120.141 210.602 120.225 210.517 120.293 210.416C120.314 210.382 120.39 210.208 120.521 209.895C120.653 209.582 120.748 209.349 120.807 209.197L118.293 202.202H119.588L121.41 207.737L123.245 202.202ZM128.196 208.264C128.953 208.264 129.472 207.978 129.751 207.407C130.035 206.831 130.176 206.192 130.176 205.49C130.176 204.855 130.075 204.339 129.872 203.941C129.55 203.315 128.996 203.001 128.208 203.001C127.51 203.001 127.002 203.268 126.685 203.801C126.368 204.334 126.209 204.978 126.209 205.731C126.209 206.455 126.368 207.058 126.685 207.54C127.002 208.022 127.506 208.264 128.196 208.264ZM128.24 202.005C129.116 202.005 129.857 202.297 130.462 202.881C131.067 203.465 131.37 204.324 131.37 205.458C131.37 206.554 131.103 207.46 130.57 208.175C130.037 208.89 129.209 209.248 128.088 209.248C127.153 209.248 126.41 208.932 125.86 208.302C125.31 207.667 125.035 206.816 125.035 205.75C125.035 204.607 125.325 203.698 125.904 203.021C126.484 202.343 127.263 202.005 128.24 202.005ZM133.877 202.202V206.715C133.877 207.062 133.932 207.345 134.042 207.565C134.245 207.972 134.624 208.175 135.178 208.175C135.974 208.175 136.515 207.819 136.803 207.108C136.96 206.728 137.038 206.205 137.038 205.541V202.202H138.181V209H137.102L137.114 207.997C136.966 208.255 136.782 208.473 136.562 208.651C136.126 209.006 135.597 209.184 134.975 209.184C134.006 209.184 133.346 208.86 132.995 208.213C132.804 207.866 132.709 207.403 132.709 206.823V202.202H133.877ZM140.002 202.202H141.088V203.376C141.177 203.147 141.395 202.87 141.742 202.544C142.089 202.214 142.489 202.049 142.941 202.049C142.963 202.049 142.999 202.051 143.049 202.056C143.1 202.06 143.187 202.068 143.31 202.081V203.287C143.242 203.274 143.178 203.266 143.119 203.262C143.064 203.257 143.003 203.255 142.935 203.255C142.36 203.255 141.917 203.442 141.608 203.814C141.299 204.182 141.145 204.607 141.145 205.09V209H140.002V202.202ZM147.829 199.644H148.94V203.027C149.19 202.701 149.488 202.453 149.835 202.284C150.182 202.111 150.559 202.024 150.965 202.024C151.811 202.024 152.497 202.316 153.021 202.9C153.55 203.48 153.815 204.337 153.815 205.471C153.815 206.546 153.555 207.438 153.034 208.149C152.514 208.86 151.792 209.216 150.87 209.216C150.353 209.216 149.917 209.091 149.562 208.841C149.35 208.693 149.124 208.456 148.883 208.13V209H147.829V199.644ZM150.8 208.207C151.418 208.207 151.879 207.961 152.184 207.47C152.493 206.979 152.647 206.332 152.647 205.528C152.647 204.813 152.493 204.22 152.184 203.75C151.879 203.281 151.428 203.046 150.832 203.046C150.311 203.046 149.854 203.238 149.46 203.624C149.071 204.009 148.876 204.643 148.876 205.528C148.876 206.167 148.957 206.685 149.118 207.083C149.418 207.832 149.979 208.207 150.8 208.207ZM156.297 202.202V206.715C156.297 207.062 156.352 207.345 156.462 207.565C156.665 207.972 157.044 208.175 157.598 208.175C158.394 208.175 158.935 207.819 159.223 207.108C159.38 206.728 159.458 206.205 159.458 205.541V202.202H160.601V209H159.521L159.534 207.997C159.386 208.255 159.202 208.473 158.982 208.651C158.546 209.006 158.017 209.184 157.395 209.184C156.426 209.184 155.766 208.86 155.415 208.213C155.224 207.866 155.129 207.403 155.129 206.823V202.202H156.297ZM163.07 206.867C163.104 207.248 163.199 207.54 163.355 207.743C163.643 208.111 164.143 208.295 164.854 208.295C165.277 208.295 165.649 208.204 165.971 208.022C166.292 207.836 166.453 207.551 166.453 207.166C166.453 206.874 166.324 206.651 166.066 206.499C165.901 206.406 165.575 206.298 165.088 206.175L164.181 205.947C163.601 205.803 163.174 205.642 162.898 205.464C162.408 205.155 162.162 204.728 162.162 204.182C162.162 203.539 162.393 203.018 162.854 202.621C163.319 202.223 163.944 202.024 164.727 202.024C165.751 202.024 166.489 202.324 166.942 202.925C167.225 203.306 167.363 203.717 167.354 204.157H166.275C166.254 203.899 166.163 203.664 166.002 203.452C165.74 203.152 165.285 203.001 164.638 203.001C164.206 203.001 163.878 203.084 163.654 203.249C163.434 203.414 163.324 203.632 163.324 203.903C163.324 204.199 163.47 204.436 163.762 204.614C163.931 204.72 164.181 204.813 164.511 204.893L165.266 205.077C166.087 205.276 166.637 205.469 166.917 205.655C167.361 205.947 167.583 206.406 167.583 207.032C167.583 207.637 167.352 208.16 166.891 208.6C166.434 209.04 165.736 209.26 164.796 209.26C163.785 209.26 163.068 209.032 162.645 208.575C162.226 208.113 162.001 207.544 161.972 206.867H163.07ZM168.891 202.233H170.052V209H168.891V202.233ZM168.891 199.675H170.052V200.97H168.891V199.675ZM171.785 202.202H172.871V203.167C173.192 202.769 173.533 202.483 173.893 202.31C174.252 202.136 174.652 202.049 175.092 202.049C176.057 202.049 176.709 202.386 177.047 203.059C177.234 203.427 177.327 203.954 177.327 204.639V209H176.165V204.715C176.165 204.301 176.104 203.966 175.981 203.712C175.778 203.289 175.41 203.078 174.876 203.078C174.606 203.078 174.383 203.105 174.21 203.16C173.897 203.253 173.622 203.439 173.385 203.719C173.194 203.943 173.069 204.176 173.01 204.417C172.955 204.654 172.928 204.995 172.928 205.439V209H171.785V202.202ZM181.853 202.049C182.335 202.049 182.803 202.164 183.255 202.392C183.708 202.616 184.053 202.908 184.29 203.268C184.519 203.611 184.671 204.011 184.747 204.468C184.815 204.781 184.849 205.28 184.849 205.966H179.866C179.887 206.656 180.05 207.21 180.354 207.629C180.659 208.044 181.131 208.251 181.77 208.251C182.367 208.251 182.843 208.054 183.198 207.661C183.401 207.432 183.545 207.168 183.63 206.867H184.753C184.724 207.117 184.624 207.396 184.455 207.705C184.29 208.01 184.104 208.259 183.896 208.454C183.549 208.793 183.12 209.021 182.608 209.14C182.333 209.207 182.022 209.241 181.675 209.241C180.828 209.241 180.111 208.934 179.523 208.321C178.935 207.703 178.641 206.84 178.641 205.731C178.641 204.639 178.937 203.753 179.529 203.071C180.122 202.39 180.896 202.049 181.853 202.049ZM183.674 205.058C183.628 204.563 183.52 204.167 183.351 203.871C183.037 203.321 182.515 203.046 181.783 203.046C181.258 203.046 180.818 203.236 180.462 203.617C180.107 203.994 179.919 204.474 179.897 205.058H183.674ZM186.937 206.867C186.971 207.248 187.066 207.54 187.223 207.743C187.51 208.111 188.01 208.295 188.721 208.295C189.144 208.295 189.516 208.204 189.838 208.022C190.16 207.836 190.32 207.551 190.32 207.166C190.32 206.874 190.191 206.651 189.933 206.499C189.768 206.406 189.442 206.298 188.956 206.175L188.048 205.947C187.468 205.803 187.041 205.642 186.766 205.464C186.275 205.155 186.029 204.728 186.029 204.182C186.029 203.539 186.26 203.018 186.721 202.621C187.187 202.223 187.811 202.024 188.594 202.024C189.618 202.024 190.356 202.324 190.809 202.925C191.093 203.306 191.23 203.717 191.222 204.157H190.143C190.121 203.899 190.03 203.664 189.87 203.452C189.607 203.152 189.152 203.001 188.505 203.001C188.073 203.001 187.745 203.084 187.521 203.249C187.301 203.414 187.191 203.632 187.191 203.903C187.191 204.199 187.337 204.436 187.629 204.614C187.798 204.72 188.048 204.813 188.378 204.893L189.133 205.077C189.954 205.276 190.504 205.469 190.784 205.655C191.228 205.947 191.45 206.406 191.45 207.032C191.45 207.637 191.22 208.16 190.758 208.6C190.301 209.04 189.603 209.26 188.664 209.26C187.652 209.26 186.935 209.032 186.512 208.575C186.093 208.113 185.868 207.544 185.839 206.867H186.937ZM193.437 206.867C193.471 207.248 193.566 207.54 193.723 207.743C194.01 208.111 194.51 208.295 195.221 208.295C195.644 208.295 196.016 208.204 196.338 208.022C196.66 207.836 196.82 207.551 196.82 207.166C196.82 206.874 196.691 206.651 196.433 206.499C196.268 206.406 195.942 206.298 195.456 206.175L194.548 205.947C193.968 205.803 193.541 205.642 193.266 205.464C192.775 205.155 192.529 204.728 192.529 204.182C192.529 203.539 192.76 203.018 193.221 202.621C193.687 202.223 194.311 202.024 195.094 202.024C196.118 202.024 196.856 202.324 197.309 202.925C197.593 203.306 197.73 203.717 197.722 204.157H196.643C196.621 203.899 196.53 203.664 196.37 203.452C196.107 203.152 195.652 203.001 195.005 203.001C194.573 203.001 194.245 203.084 194.021 203.249C193.801 203.414 193.691 203.632 193.691 203.903C193.691 204.199 193.837 204.436 194.129 204.614C194.298 204.72 194.548 204.813 194.878 204.893L195.633 205.077C196.454 205.276 197.004 205.469 197.284 205.655C197.728 205.947 197.95 206.406 197.95 207.032C197.95 207.637 197.72 208.16 197.258 208.6C196.801 209.04 196.103 209.26 195.164 209.26C194.152 209.26 193.435 209.032 193.012 208.575C192.593 208.113 192.368 207.544 192.339 206.867H193.437ZM205.745 208.232C206.278 208.232 206.721 208.01 207.072 207.565C207.427 207.117 207.605 206.448 207.605 205.56C207.605 205.018 207.527 204.552 207.37 204.163C207.074 203.414 206.532 203.04 205.745 203.04C204.954 203.04 204.412 203.435 204.12 204.227C203.964 204.65 203.885 205.187 203.885 205.839C203.885 206.364 203.964 206.81 204.12 207.178C204.416 207.881 204.958 208.232 205.745 208.232ZM202.787 202.233H203.898V203.135C204.126 202.826 204.376 202.587 204.647 202.417C205.032 202.164 205.485 202.037 206.005 202.037C206.776 202.037 207.429 202.333 207.967 202.925C208.504 203.514 208.773 204.356 208.773 205.452C208.773 206.933 208.386 207.991 207.611 208.625C207.12 209.028 206.549 209.229 205.897 209.229C205.385 209.229 204.956 209.116 204.609 208.892C204.406 208.765 204.179 208.547 203.93 208.238V211.71H202.787V202.233ZM210.144 202.202H211.229V203.376C211.318 203.147 211.536 202.87 211.883 202.544C212.23 202.214 212.63 202.049 213.083 202.049C213.104 202.049 213.14 202.051 213.191 202.056C213.242 202.06 213.328 202.068 213.451 202.081V203.287C213.383 203.274 213.32 203.266 213.261 203.262C213.206 203.257 213.144 203.255 213.077 203.255C212.501 203.255 212.059 203.442 211.75 203.814C211.441 204.182 211.287 204.607 211.287 205.09V209H210.144V202.202ZM217.139 208.264C217.897 208.264 218.415 207.978 218.694 207.407C218.978 206.831 219.12 206.192 219.12 205.49C219.12 204.855 219.018 204.339 218.815 203.941C218.493 203.315 217.939 203.001 217.152 203.001C216.454 203.001 215.946 203.268 215.628 203.801C215.311 204.334 215.152 204.978 215.152 205.731C215.152 206.455 215.311 207.058 215.628 207.54C215.946 208.022 216.449 208.264 217.139 208.264ZM217.184 202.005C218.06 202.005 218.8 202.297 219.405 202.881C220.01 203.465 220.313 204.324 220.313 205.458C220.313 206.554 220.046 207.46 219.513 208.175C218.98 208.89 218.153 209.248 217.031 209.248C216.096 209.248 215.353 208.932 214.803 208.302C214.253 207.667 213.978 206.816 213.978 205.75C213.978 204.607 214.268 203.698 214.848 203.021C215.427 202.343 216.206 202.005 217.184 202.005ZM222.236 202.202L224.052 207.737L225.95 202.202H227.2L224.636 209H223.417L220.91 202.202H222.236ZM228.178 202.233H229.339V209H228.178V202.233ZM228.178 199.675H229.339V200.97H228.178V199.675ZM231.796 205.68C231.796 206.408 231.95 207.017 232.259 207.508C232.568 207.999 233.063 208.245 233.745 208.245C234.274 208.245 234.707 208.018 235.046 207.565C235.389 207.108 235.56 206.455 235.56 205.604C235.56 204.745 235.384 204.11 235.033 203.7C234.682 203.285 234.248 203.078 233.732 203.078C233.156 203.078 232.689 203.298 232.329 203.738C231.974 204.178 231.796 204.825 231.796 205.68ZM233.516 202.081C234.037 202.081 234.472 202.191 234.824 202.411C235.027 202.538 235.257 202.76 235.516 203.078V199.644H236.614V209H235.585V208.054C235.319 208.473 235.004 208.776 234.64 208.962C234.276 209.148 233.859 209.241 233.389 209.241C232.632 209.241 231.976 208.924 231.421 208.289C230.867 207.65 230.59 206.802 230.59 205.744C230.59 204.753 230.842 203.896 231.345 203.173C231.853 202.445 232.577 202.081 233.516 202.081ZM241.14 202.049C241.622 202.049 242.09 202.164 242.542 202.392C242.995 202.616 243.34 202.908 243.577 203.268C243.806 203.611 243.958 204.011 244.034 204.468C244.102 204.781 244.136 205.28 244.136 205.966H239.153C239.174 206.656 239.337 207.21 239.642 207.629C239.946 208.044 240.418 208.251 241.057 208.251C241.654 208.251 242.13 208.054 242.485 207.661C242.688 207.432 242.832 207.168 242.917 206.867H244.041C244.011 207.117 243.911 207.396 243.742 207.705C243.577 208.01 243.391 208.259 243.184 208.454C242.837 208.793 242.407 209.021 241.895 209.14C241.62 209.207 241.309 209.241 240.962 209.241C240.116 209.241 239.398 208.934 238.81 208.321C238.222 207.703 237.928 206.84 237.928 205.731C237.928 204.639 238.224 203.753 238.816 203.071C239.409 202.39 240.183 202.049 241.14 202.049ZM242.961 205.058C242.915 204.563 242.807 204.167 242.638 203.871C242.325 203.321 241.802 203.046 241.07 203.046C240.545 203.046 240.105 203.236 239.75 203.617C239.394 203.994 239.206 204.474 239.185 205.058H242.961ZM246.224 206.867C246.258 207.248 246.353 207.54 246.51 207.743C246.798 208.111 247.297 208.295 248.008 208.295C248.431 208.295 248.803 208.204 249.125 208.022C249.447 207.836 249.607 207.551 249.607 207.166C249.607 206.874 249.478 206.651 249.22 206.499C249.055 206.406 248.729 206.298 248.243 206.175L247.335 205.947C246.755 205.803 246.328 205.642 246.053 205.464C245.562 205.155 245.316 204.728 245.316 204.182C245.316 203.539 245.547 203.018 246.008 202.621C246.474 202.223 247.098 202.024 247.881 202.024C248.905 202.024 249.643 202.324 250.096 202.925C250.38 203.306 250.517 203.717 250.509 204.157H249.43C249.409 203.899 249.318 203.664 249.157 203.452C248.894 203.152 248.439 203.001 247.792 203.001C247.36 203.001 247.032 203.084 246.808 203.249C246.588 203.414 246.478 203.632 246.478 203.903C246.478 204.199 246.624 204.436 246.916 204.614C247.085 204.72 247.335 204.813 247.665 204.893L248.42 205.077C249.241 205.276 249.792 205.469 250.071 205.655C250.515 205.947 250.737 206.406 250.737 207.032C250.737 207.637 250.507 208.16 250.045 208.6C249.588 209.04 248.89 209.26 247.951 209.26C246.939 209.26 246.222 209.032 245.799 208.575C245.38 208.113 245.156 207.544 245.126 206.867H246.224ZM252.318 207.616H253.645V209H252.318V207.616Z" fill="#BEBEBE"/>
<path d="M366.642 199.675L368.4 207.261L370.507 199.675H371.878L373.986 207.261L375.744 199.675H377.128L374.678 209H373.351L371.199 201.269L369.035 209H367.708L365.271 199.675H366.642ZM378.15 199.644H379.292V203.122C379.563 202.779 379.807 202.538 380.022 202.398C380.391 202.157 380.85 202.037 381.4 202.037C382.386 202.037 383.055 202.382 383.406 203.071C383.596 203.448 383.691 203.971 383.691 204.639V209H382.517V204.715C382.517 204.216 382.454 203.85 382.327 203.617C382.119 203.245 381.73 203.059 381.159 203.059C380.685 203.059 380.255 203.222 379.87 203.547C379.485 203.873 379.292 204.489 379.292 205.395V209H378.15V199.644ZM386.262 207.191C386.262 207.521 386.383 207.781 386.624 207.972C386.865 208.162 387.151 208.257 387.481 208.257C387.883 208.257 388.272 208.164 388.649 207.978C389.284 207.669 389.601 207.163 389.601 206.461V205.541C389.461 205.629 389.282 205.703 389.062 205.763C388.841 205.822 388.626 205.864 388.414 205.89L387.722 205.979C387.307 206.034 386.996 206.12 386.789 206.239C386.438 206.438 386.262 206.755 386.262 207.191ZM389.03 204.88C389.292 204.847 389.468 204.736 389.557 204.55C389.607 204.449 389.633 204.303 389.633 204.112C389.633 203.723 389.493 203.442 389.214 203.268C388.939 203.09 388.543 203.001 388.027 203.001C387.43 203.001 387.007 203.162 386.757 203.484C386.618 203.662 386.527 203.926 386.484 204.277H385.418C385.439 203.439 385.71 202.858 386.23 202.532C386.755 202.202 387.362 202.037 388.052 202.037C388.852 202.037 389.502 202.189 390.001 202.494C390.496 202.798 390.744 203.272 390.744 203.916V207.832C390.744 207.951 390.767 208.046 390.813 208.118C390.864 208.19 390.968 208.226 391.125 208.226C391.175 208.226 391.232 208.223 391.296 208.219C391.359 208.211 391.427 208.2 391.499 208.188V209.032C391.321 209.083 391.186 209.114 391.093 209.127C391 209.14 390.873 209.146 390.712 209.146C390.318 209.146 390.033 209.006 389.855 208.727C389.762 208.579 389.696 208.369 389.658 208.099C389.425 208.403 389.091 208.668 388.655 208.892C388.219 209.116 387.739 209.229 387.214 209.229C386.584 209.229 386.068 209.038 385.666 208.657C385.268 208.272 385.069 207.792 385.069 207.216C385.069 206.586 385.266 206.097 385.659 205.75C386.053 205.403 386.569 205.189 387.208 205.109L389.03 204.88ZM392.851 200.304H394.006V202.202H395.092V203.135H394.006V207.572C394.006 207.809 394.087 207.967 394.248 208.048C394.336 208.094 394.485 208.118 394.692 208.118C394.747 208.118 394.806 208.118 394.87 208.118C394.933 208.113 395.007 208.107 395.092 208.099V209C394.961 209.038 394.823 209.066 394.679 209.083C394.54 209.099 394.387 209.108 394.222 209.108C393.689 209.108 393.327 208.972 393.137 208.702C392.946 208.427 392.851 208.071 392.851 207.635V203.135H391.931V202.202H392.851V200.304ZM404.105 202.202H405.369C405.208 202.638 404.85 203.632 404.296 205.185C403.881 206.353 403.534 207.305 403.255 208.042C402.595 209.777 402.129 210.834 401.858 211.215C401.588 211.596 401.122 211.787 400.462 211.787C400.301 211.787 400.176 211.78 400.087 211.768C400.003 211.755 399.897 211.732 399.77 211.698V210.657C399.969 210.712 400.113 210.746 400.202 210.758C400.291 210.771 400.369 210.777 400.437 210.777C400.648 210.777 400.803 210.741 400.9 210.669C401.001 210.602 401.086 210.517 401.154 210.416C401.175 210.382 401.251 210.208 401.382 209.895C401.514 209.582 401.609 209.349 401.668 209.197L399.154 202.202H400.449L402.271 207.737L404.105 202.202ZM409.057 208.264C409.814 208.264 410.333 207.978 410.612 207.407C410.895 206.831 411.037 206.192 411.037 205.49C411.037 204.855 410.936 204.339 410.732 203.941C410.411 203.315 409.856 203.001 409.069 203.001C408.371 203.001 407.863 203.268 407.546 203.801C407.229 204.334 407.07 204.978 407.07 205.731C407.07 206.455 407.229 207.058 407.546 207.54C407.863 208.022 408.367 208.264 409.057 208.264ZM409.101 202.005C409.977 202.005 410.718 202.297 411.323 202.881C411.928 203.465 412.23 204.324 412.23 205.458C412.23 206.554 411.964 207.46 411.431 208.175C410.897 208.89 410.07 209.248 408.949 209.248C408.014 209.248 407.271 208.932 406.721 208.302C406.171 207.667 405.896 206.816 405.896 205.75C405.896 204.607 406.185 203.698 406.765 203.021C407.345 202.343 408.124 202.005 409.101 202.005ZM414.738 202.202V206.715C414.738 207.062 414.793 207.345 414.903 207.565C415.106 207.972 415.485 208.175 416.039 208.175C416.835 208.175 417.376 207.819 417.664 207.108C417.821 206.728 417.899 206.205 417.899 205.541V202.202H419.042V209H417.962L417.975 207.997C417.827 208.255 417.643 208.473 417.423 208.651C416.987 209.006 416.458 209.184 415.836 209.184C414.867 209.184 414.207 208.86 413.855 208.213C413.665 207.866 413.57 207.403 413.57 206.823V202.202H414.738ZM420.863 202.202H421.949V203.376C422.038 203.147 422.256 202.87 422.603 202.544C422.95 202.214 423.349 202.049 423.802 202.049C423.823 202.049 423.859 202.051 423.91 202.056C423.961 202.06 424.048 202.068 424.17 202.081V203.287C424.103 203.274 424.039 203.266 423.98 203.262C423.925 203.257 423.864 203.255 423.796 203.255C423.22 203.255 422.778 203.442 422.469 203.814C422.16 204.182 422.006 204.607 422.006 205.09V209H420.863V202.202ZM429.921 202.202V206.715C429.921 207.062 429.976 207.345 430.086 207.565C430.29 207.972 430.668 208.175 431.223 208.175C432.018 208.175 432.56 207.819 432.848 207.108C433.004 206.728 433.083 206.205 433.083 205.541V202.202H434.225V209H433.146L433.159 207.997C433.011 208.255 432.826 208.473 432.606 208.651C432.171 209.006 431.642 209.184 431.02 209.184C430.05 209.184 429.39 208.86 429.039 208.213C428.849 207.866 428.753 207.403 428.753 206.823V202.202H429.921ZM436.694 206.867C436.728 207.248 436.823 207.54 436.98 207.743C437.268 208.111 437.767 208.295 438.478 208.295C438.901 208.295 439.274 208.204 439.595 208.022C439.917 207.836 440.078 207.551 440.078 207.166C440.078 206.874 439.949 206.651 439.69 206.499C439.525 206.406 439.2 206.298 438.713 206.175L437.805 205.947C437.225 205.803 436.798 205.642 436.523 205.464C436.032 205.155 435.787 204.728 435.787 204.182C435.787 203.539 436.017 203.018 436.479 202.621C436.944 202.223 437.568 202.024 438.351 202.024C439.375 202.024 440.114 202.324 440.566 202.925C440.85 203.306 440.987 203.717 440.979 204.157H439.9C439.879 203.899 439.788 203.664 439.627 203.452C439.365 203.152 438.91 203.001 438.262 203.001C437.831 203.001 437.503 203.084 437.278 203.249C437.058 203.414 436.948 203.632 436.948 203.903C436.948 204.199 437.094 204.436 437.386 204.614C437.556 204.72 437.805 204.813 438.135 204.893L438.891 205.077C439.712 205.276 440.262 205.469 440.541 205.655C440.985 205.947 441.208 206.406 441.208 207.032C441.208 207.637 440.977 208.16 440.516 208.6C440.059 209.04 439.36 209.26 438.421 209.26C437.41 209.26 436.692 209.032 436.269 208.575C435.85 208.113 435.626 207.544 435.596 206.867H436.694ZM445.346 202.049C445.829 202.049 446.296 202.164 446.749 202.392C447.202 202.616 447.547 202.908 447.784 203.268C448.012 203.611 448.165 204.011 448.241 204.468C448.308 204.781 448.342 205.28 448.342 205.966H443.359C443.381 206.656 443.543 207.21 443.848 207.629C444.153 208.044 444.625 208.251 445.264 208.251C445.86 208.251 446.336 208.054 446.692 207.661C446.895 207.432 447.039 207.168 447.124 206.867H448.247C448.217 207.117 448.118 207.396 447.949 207.705C447.784 208.01 447.597 208.259 447.39 208.454C447.043 208.793 446.614 209.021 446.102 209.14C445.826 209.207 445.515 209.241 445.168 209.241C444.322 209.241 443.605 208.934 443.017 208.321C442.428 207.703 442.134 206.84 442.134 205.731C442.134 204.639 442.431 203.753 443.023 203.071C443.615 202.39 444.39 202.049 445.346 202.049ZM447.168 205.058C447.121 204.563 447.014 204.167 446.844 203.871C446.531 203.321 446.008 203.046 445.276 203.046C444.752 203.046 444.312 203.236 443.956 203.617C443.601 203.994 443.412 204.474 443.391 205.058H447.168ZM449.783 202.202H450.869V203.376C450.958 203.147 451.175 202.87 451.522 202.544C451.869 202.214 452.269 202.049 452.722 202.049C452.743 202.049 452.779 202.051 452.83 202.056C452.881 202.06 452.968 202.068 453.09 202.081V203.287C453.023 203.274 452.959 203.266 452.9 203.262C452.845 203.257 452.784 203.255 452.716 203.255C452.14 203.255 451.698 203.442 451.389 203.814C451.08 204.182 450.926 204.607 450.926 205.09V209H449.783V202.202ZM454.76 206.867C454.794 207.248 454.889 207.54 455.045 207.743C455.333 208.111 455.833 208.295 456.543 208.295C456.967 208.295 457.339 208.204 457.661 208.022C457.982 207.836 458.143 207.551 458.143 207.166C458.143 206.874 458.014 206.651 457.756 206.499C457.591 206.406 457.265 206.298 456.778 206.175L455.871 205.947C455.291 205.803 454.863 205.642 454.588 205.464C454.097 205.155 453.852 204.728 453.852 204.182C453.852 203.539 454.083 203.018 454.544 202.621C455.009 202.223 455.634 202.024 456.417 202.024C457.441 202.024 458.179 202.324 458.632 202.925C458.915 203.306 459.053 203.717 459.044 204.157H457.965C457.944 203.899 457.853 203.664 457.692 203.452C457.43 203.152 456.975 203.001 456.328 203.001C455.896 203.001 455.568 203.084 455.344 203.249C455.124 203.414 455.014 203.632 455.014 203.903C455.014 204.199 455.16 204.436 455.452 204.614C455.621 204.72 455.871 204.813 456.201 204.893L456.956 205.077C457.777 205.276 458.327 205.469 458.606 205.655C459.051 205.947 459.273 206.406 459.273 207.032C459.273 207.637 459.042 208.16 458.581 208.6C458.124 209.04 457.426 209.26 456.486 209.26C455.475 209.26 454.758 209.032 454.334 208.575C453.916 208.113 453.691 207.544 453.662 206.867H454.76ZM464.484 201.167C464.501 200.693 464.584 200.346 464.732 200.126C464.999 199.737 465.513 199.542 466.274 199.542C466.346 199.542 466.42 199.544 466.497 199.548C466.573 199.553 466.66 199.559 466.757 199.567V200.608C466.638 200.6 466.552 200.596 466.497 200.596C466.446 200.591 466.397 200.589 466.351 200.589C466.004 200.589 465.796 200.68 465.729 200.862C465.661 201.04 465.627 201.497 465.627 202.233H466.757V203.135H465.614V209H464.484V203.135H463.539V202.233H464.484V201.167ZM470.648 202.049C471.13 202.049 471.598 202.164 472.051 202.392C472.504 202.616 472.848 202.908 473.085 203.268C473.314 203.611 473.466 204.011 473.542 204.468C473.61 204.781 473.644 205.28 473.644 205.966H468.661C468.682 206.656 468.845 207.21 469.15 207.629C469.455 208.044 469.926 208.251 470.565 208.251C471.162 208.251 471.638 208.054 471.994 207.661C472.197 207.432 472.341 207.168 472.425 206.867H473.549C473.519 207.117 473.42 207.396 473.25 207.705C473.085 208.01 472.899 208.259 472.692 208.454C472.345 208.793 471.915 209.021 471.403 209.14C471.128 209.207 470.817 209.241 470.47 209.241C469.624 209.241 468.907 208.934 468.318 208.321C467.73 207.703 467.436 206.84 467.436 205.731C467.436 204.639 467.732 203.753 468.325 203.071C468.917 202.39 469.692 202.049 470.648 202.049ZM472.47 205.058C472.423 204.563 472.315 204.167 472.146 203.871C471.833 203.321 471.31 203.046 470.578 203.046C470.053 203.046 469.613 203.236 469.258 203.617C468.902 203.994 468.714 204.474 468.693 205.058H472.47ZM477.884 202.049C478.367 202.049 478.834 202.164 479.287 202.392C479.74 202.616 480.085 202.908 480.322 203.268C480.55 203.611 480.703 204.011 480.779 204.468C480.847 204.781 480.88 205.28 480.88 205.966H475.897C475.919 206.656 476.082 207.21 476.386 207.629C476.691 208.044 477.163 208.251 477.802 208.251C478.398 208.251 478.875 208.054 479.23 207.661C479.433 207.432 479.577 207.168 479.662 206.867H480.785C480.756 207.117 480.656 207.396 480.487 207.705C480.322 208.01 480.136 208.259 479.928 208.454C479.581 208.793 479.152 209.021 478.64 209.14C478.365 209.207 478.054 209.241 477.707 209.241C476.86 209.241 476.143 208.934 475.555 208.321C474.966 207.703 474.672 206.84 474.672 205.731C474.672 204.639 474.969 203.753 475.561 203.071C476.153 202.39 476.928 202.049 477.884 202.049ZM479.706 205.058C479.66 204.563 479.552 204.167 479.382 203.871C479.069 203.321 478.547 203.046 477.814 203.046C477.29 203.046 476.85 203.236 476.494 203.617C476.139 203.994 475.95 204.474 475.929 205.058H479.706ZM482.321 199.675H483.464V209H482.321V199.675ZM485.457 207.616H486.784V209H485.457V207.616Z" fill="#BEBEBE"/>
<path d="M525.559 10.3945V4.64355H527.546V10.3945C527.546 11.389 527.391 12.1634 527.083 12.7178C526.507 13.7334 525.409 14.2412 523.788 14.2412C522.167 14.2412 521.067 13.7334 520.487 12.7178C520.178 12.1634 520.024 11.389 520.024 10.3945V4.64355H522.011V10.3945C522.011 11.0378 522.087 11.5075 522.239 11.8037C522.476 12.3285 522.993 12.5908 523.788 12.5908C524.579 12.5908 525.094 12.3285 525.331 11.8037C525.483 11.5075 525.559 11.0378 525.559 10.3945ZM534.04 7.39844C534.581 7.74544 534.892 8.34212 534.973 9.18848H533.164C533.138 8.95573 533.073 8.77165 532.967 8.63623C532.768 8.39079 532.429 8.26807 531.951 8.26807C531.558 8.26807 531.276 8.32943 531.107 8.45215C530.942 8.57487 530.859 8.71875 530.859 8.88379C530.859 9.09115 530.948 9.24137 531.126 9.33447C531.304 9.4318 531.932 9.59896 533.011 9.83594C533.731 10.0052 534.27 10.2612 534.63 10.604C534.985 10.951 535.163 11.3848 535.163 11.9053C535.163 12.5908 534.907 13.1515 534.395 13.5874C533.887 14.019 533.1 14.2349 532.034 14.2349C530.946 14.2349 530.142 14.0063 529.622 13.5493C529.105 13.0881 528.847 12.502 528.847 11.791H530.682C530.72 12.1126 530.802 12.3411 530.929 12.4766C531.153 12.7178 531.568 12.8384 532.173 12.8384C532.529 12.8384 532.81 12.7855 533.018 12.6797C533.229 12.5739 533.335 12.4152 533.335 12.2036C533.335 12.0005 533.25 11.846 533.081 11.7402C532.912 11.6344 532.283 11.4525 531.196 11.1943C530.413 10.9997 529.861 10.7563 529.539 10.4644C529.217 10.1766 529.057 9.76188 529.057 9.22021C529.057 8.58122 529.306 8.0332 529.806 7.57617C530.309 7.11491 531.016 6.88428 531.926 6.88428C532.789 6.88428 533.494 7.05566 534.04 7.39844ZM542.431 11.9688C542.385 12.3792 542.171 12.7961 541.79 13.2192C541.198 13.8921 540.368 14.2285 539.302 14.2285C538.422 14.2285 537.645 13.945 536.972 13.3779C536.299 12.8109 535.963 11.8883 535.963 10.6104C535.963 9.41276 536.265 8.49447 536.871 7.85547C537.48 7.21647 538.269 6.89697 539.238 6.89697C539.814 6.89697 540.332 7.00488 540.793 7.2207C541.255 7.43652 541.636 7.77718 541.936 8.24268C542.207 8.65316 542.382 9.12923 542.463 9.6709C542.509 9.98828 542.528 10.4453 542.52 11.042H537.785C537.81 11.736 538.028 12.2227 538.438 12.502C538.688 12.6755 538.989 12.7622 539.34 12.7622C539.712 12.7622 540.015 12.6564 540.248 12.4448C540.375 12.3306 540.487 12.1719 540.584 11.9688H542.431ZM540.641 9.84863C540.611 9.37044 540.465 9.00863 540.203 8.76318C539.945 8.51351 539.623 8.38867 539.238 8.38867C538.819 8.38867 538.493 8.51986 538.261 8.78223C538.032 9.0446 537.888 9.40007 537.829 9.84863H540.641ZM547.224 8.75049C546.496 8.75049 546.007 8.98747 545.757 9.46143C545.618 9.72803 545.548 10.1385 545.548 10.6929V14H543.726V7.08105H545.453V8.28711C545.732 7.82585 545.975 7.51058 546.183 7.34131C546.521 7.05778 546.961 6.91602 547.503 6.91602C547.537 6.91602 547.564 6.91813 547.585 6.92236C547.611 6.92236 547.664 6.92448 547.744 6.92871V8.78223C547.63 8.76953 547.528 8.76107 547.439 8.75684C547.351 8.7526 547.279 8.75049 547.224 8.75049Z" fill="#BEBEBE"/>
<path d="M292.354 116.646C292.158 116.451 291.842 116.451 291.646 116.646L288.464 119.828C288.269 120.024 288.269 120.34 288.464 120.536C288.66 120.731 288.976 120.731 289.172 120.536L292 117.707L294.828 120.536C295.024 120.731 295.34 120.731 295.536 120.536C295.731 120.34 295.731 120.024 295.536 119.828L292.354 116.646ZM292.5 165L292.5 117L291.5 117L291.5 165L292.5 165Z" fill="#BEBEBE"/>
<path d="M316 165L316 105" stroke="#BEBEBE"/>
<line x1="45.5" y1="145" x2="45.5" y2="165" stroke="#BEBEBE"/>
<path d="M535.354 133.646C535.158 133.451 534.842 133.451 534.646 133.646L531.464 136.828C531.269 137.024 531.269 137.34 531.464 137.536C531.66 137.731 531.976 137.731 532.172 137.536L535 134.707L537.828 137.536C538.024 137.731 538.34 137.731 538.536 137.536C538.731 137.34 538.731 137.024 538.536 136.828L535.354 133.646ZM534.5 134L534.5 165L535.5 165L535.5 134L534.5 134Z" fill="#BEBEBE"/>
<line x1="45" y1="164.5" x2="292" y2="164.5" stroke="#BEBEBE"/>
<line x1="316" y1="164.5" x2="535" y2="164.5" stroke="#BEBEBE"/>
</svg>
